<svg id="svg" version="1.1" xmlns="http://www.w3.org/2000/svg" xmlns:xlink="http://www.w3.org/1999/xlink" width="400" height="209.4" viewBox="0, 0, 400,209.4"><g id="svgg"><path id="path0" d="M200.600 39.733 C 200.215 39.898,199.600 40.318,199.233 40.667 C 197.848 41.981,197.910 41.476,197.800 52.300 L 197.700 62.100 174.500 62.200 L 151.300 62.300 150.485 62.854 C 150.037 63.158,149.452 63.788,149.185 64.254 L 148.700 65.100 148.600 74.900 L 148.500 84.700 137.900 84.800 C 126.535 84.907,126.660 84.895,125.532 85.963 C 124.263 87.163,124.310 86.758,124.200 97.600 L 124.100 107.500 120.489 107.600 L 116.879 107.700 115.352 108.454 C 112.670 109.781,111.183 112.041,110.851 115.300 C 110.712 116.661,111.553 126.857,112.005 129.300 C 112.107 129.850,112.329 131.155,112.499 132.200 C 112.669 133.245,112.892 134.460,112.995 134.900 C 119.870 164.269,133.118 177.165,160.949 181.579 C 164.355 182.119,165.068 182.208,168.300 182.488 C 179.558 183.464,182.099 183.463,193.700 182.475 C 200.554 181.891,210.993 179.995,215.000 178.606 C 215.275 178.511,216.445 178.147,217.600 177.798 C 246.401 169.082,265.901 149.985,279.371 117.300 L 280.360 114.900 283.430 114.777 C 296.906 114.238,306.676 107.816,310.854 96.752 L 311.362 95.405 310.131 94.425 C 306.428 91.480,301.455 89.940,294.800 89.678 C 292.020 89.568,290.502 89.644,285.559 90.143 C 284.698 90.229,284.608 90.197,284.512 89.769 C 282.300 79.904,277.080 72.592,269.137 68.233 C 267.220 67.181,267.532 67.055,265.875 69.552 C 258.698 80.367,257.616 95.077,263.401 103.201 C 263.937 103.953,263.834 104.105,262.328 104.798 C 259.349 106.167,252.332 107.723,251.018 107.306 L 250.592 107.171 250.600 98.335 C 250.604 93.476,250.606 89.088,250.604 88.584 C 250.599 87.405,249.744 86.071,248.559 85.392 L 247.700 84.900 236.900 84.800 L 226.100 84.700 226.000 63.600 C 225.942 51.306,225.823 42.333,225.715 42.100 C 225.277 41.155,224.489 40.376,223.493 39.905 L 222.425 39.400 211.862 39.416 C 202.940 39.430,201.191 39.479,200.600 39.733 M178.063 138.273 C 180.864 139.644,182.434 142.848,181.718 145.734 C 180.142 152.087,172.018 153.055,169.152 147.233 C 166.379 141.600,172.429 135.517,178.063 138.273 M174.273 140.787 C 171.094 141.563,170.611 146.202,173.560 147.629 C 175.936 148.779,178.799 147.058,178.800 144.479 L 178.800 143.659 177.809 143.754 C 176.387 143.891,175.534 143.065,175.634 141.649 C 175.707 140.594,175.528 140.481,174.273 140.787 M164.807 159.942 C 171.082 168.792,180.407 175.782,190.083 178.890 C 192.970 179.817,171.558 179.744,165.300 178.805 C 164.640 178.706,163.380 178.522,162.500 178.396 C 160.457 178.103,155.005 177.050,153.700 176.697 C 153.150 176.548,152.205 176.292,151.600 176.127 C 143.944 174.047,138.093 171.023,132.850 166.439 C 131.806 165.527,131.914 165.501,136.850 165.484 C 142.981 165.462,146.816 164.887,152.500 163.136 C 153.922 162.697,154.684 162.421,156.900 161.539 C 157.230 161.407,158.760 160.660,160.300 159.877 C 163.785 158.106,163.503 158.102,164.807 159.942 " stroke="none" fill="#2583d8" fill-rule="evenodd"></path><path id="path1" d="M0.000 104.700 L 0.000 209.400 200.000 209.400 L 400.000 209.400 400.000 104.700 L 400.000 0.000 200.000 0.000 L 0.000 0.000 0.000 104.700 M224.184 39.900 C 226.491 41.806,226.285 39.605,226.400 63.600 L 226.500 84.500 237.000 84.552 C 244.514 84.589,247.671 84.671,248.100 84.841 C 249.095 85.234,249.811 85.852,250.370 86.800 L 250.900 87.700 250.957 97.407 L 251.014 107.113 252.557 106.973 C 255.577 106.699,259.207 105.792,262.094 104.590 L 263.601 103.962 263.189 103.384 C 256.886 94.532,258.496 79.278,266.981 67.456 C 267.401 66.872,267.303 66.848,269.331 68.034 C 277.170 72.618,282.706 80.037,284.505 88.368 L 284.866 90.036 285.483 89.922 C 288.685 89.331,297.096 89.263,299.700 89.808 C 304.169 90.743,307.645 92.155,310.050 94.014 C 311.576 95.193,311.652 95.436,311.018 97.104 C 306.857 108.053,296.742 114.615,283.304 115.085 L 280.522 115.182 279.854 116.841 C 279.066 118.794,278.628 119.831,277.845 121.600 C 277.528 122.315,277.054 123.395,276.791 124.000 C 273.970 130.497,268.681 139.560,264.135 145.687 C 255.731 157.015,243.400 167.181,231.200 172.840 C 229.067 173.830,227.733 174.415,226.300 174.991 C 225.420 175.345,224.520 175.710,224.300 175.801 C 223.121 176.292,219.685 177.466,216.500 178.466 C 214.220 179.181,208.762 180.499,205.600 181.097 C 201.265 181.918,201.027 181.957,198.300 182.279 C 196.870 182.448,194.755 182.702,193.600 182.843 C 190.643 183.205,171.117 183.202,168.200 182.839 C 162.294 182.104,158.476 181.522,156.300 181.023 C 155.860 180.923,155.050 180.747,154.500 180.633 C 153.950 180.519,152.960 180.277,152.300 180.095 C 151.640 179.914,150.740 179.678,150.300 179.572 C 149.365 179.345,145.483 178.071,144.900 177.799 C 144.680 177.696,143.780 177.333,142.900 176.993 C 131.871 172.722,122.476 162.699,117.222 149.600 C 116.759 148.445,116.298 147.320,116.197 147.100 C 115.287 145.106,112.962 136.729,112.424 133.500 C 112.313 132.840,112.088 131.535,111.922 130.600 C 111.645 129.041,111.496 127.860,110.999 123.300 C 110.904 122.420,110.820 119.802,110.813 117.482 L 110.800 113.264 111.439 111.982 C 113.140 108.571,115.105 107.544,120.200 107.403 L 123.900 107.300 124.000 97.391 C 124.141 83.423,122.742 84.739,137.600 84.600 L 148.300 84.500 148.400 74.700 C 148.516 63.329,148.453 63.629,151.000 62.273 C 151.632 61.936,173.470 61.713,197.343 61.799 C 197.530 61.800,197.588 59.607,197.596 52.286 C 197.609 41.134,197.540 41.536,199.686 39.966 L 200.473 39.391 212.086 39.445 C 223.363 39.498,223.714 39.512,224.184 39.900 M173.153 138.188 C 166.387 140.364,168.045 150.800,175.157 150.800 C 181.879 150.800,183.932 141.649,177.923 138.473 C 177.209 138.096,174.031 137.906,173.153 138.188 M176.097 141.676 C 176.101 143.251,176.716 143.812,178.050 143.456 C 179.087 143.179,179.055 143.146,179.043 144.471 C 179.003 148.903,172.550 149.671,171.395 145.381 C 170.723 142.885,172.680 140.353,175.197 140.461 L 176.094 140.500 176.097 141.676 M160.500 160.073 C 157.719 161.494,157.329 161.671,155.600 162.307 C 155.105 162.488,154.520 162.712,154.300 162.803 C 153.335 163.203,151.216 163.835,149.300 164.293 C 148.530 164.478,147.585 164.707,147.200 164.804 C 145.932 165.121,142.501 165.600,141.491 165.601 C 140.946 165.601,139.695 165.700,138.711 165.821 C 137.395 165.982,136.345 165.979,134.737 165.811 C 132.026 165.527,132.060 165.447,134.151 167.180 C 140.377 172.341,147.580 175.325,159.300 177.599 C 160.373 177.807,163.305 178.246,165.900 178.588 C 171.101 179.272,182.320 179.622,187.676 179.267 L 189.652 179.136 188.176 178.559 C 178.706 174.853,170.467 168.460,164.787 160.412 C 164.083 159.415,163.461 158.610,163.404 158.622 C 163.347 158.633,162.040 159.287,160.500 160.073 " stroke="none" fill="#fbfbfb" fill-rule="evenodd"></path><path id="path2" d="M200.288 39.697 C 199.933 39.969,199.955 39.976,200.550 39.778 C 201.229 39.551,201.384 39.400,200.938 39.400 C 200.794 39.400,200.502 39.534,200.288 39.697 M223.200 39.736 C 223.585 39.902,224.013 40.131,224.150 40.244 C 224.288 40.357,224.400 40.392,224.400 40.322 C 224.400 40.118,223.130 39.400,222.800 39.417 C 222.635 39.426,222.815 39.569,223.200 39.736 M199.399 40.256 C 198.881 40.675,198.000 41.820,198.006 42.065 C 198.009 42.194,198.111 42.120,198.232 41.900 C 198.353 41.680,198.774 41.163,199.167 40.750 C 199.875 40.006,199.978 39.788,199.399 40.256 M225.000 41.000 C 225.235 41.330,225.472 41.600,225.527 41.600 C 225.582 41.600,225.435 41.330,225.200 41.000 C 224.965 40.670,224.728 40.400,224.673 40.400 C 224.618 40.400,224.765 40.670,225.000 41.000 M197.726 43.018 C 197.657 43.366,197.600 47.778,197.600 52.824 L 197.600 61.998 174.700 62.050 L 151.800 62.103 174.750 62.101 L 197.700 62.100 197.800 52.300 C 197.855 46.910,197.889 42.474,197.876 42.443 C 197.863 42.412,197.796 42.670,197.726 43.018 M226.099 63.850 L 226.100 84.700 236.650 84.703 L 247.200 84.705 236.701 84.651 L 226.202 84.596 226.150 63.798 L 226.097 43.000 226.099 63.850 M148.998 64.250 C 148.780 64.608,148.601 64.983,148.601 65.083 C 148.600 65.311,148.628 65.274,149.157 64.350 C 149.683 63.431,149.548 63.347,148.998 64.250 M148.448 74.948 L 148.400 84.596 138.050 84.650 L 127.700 84.704 138.056 84.752 C 146.193 84.790,148.433 84.746,148.508 84.550 C 148.561 84.413,148.580 80.025,148.550 74.800 L 148.496 65.300 148.448 74.948 M266.512 68.322 C 266.102 68.939,265.856 69.389,265.965 69.321 C 266.075 69.254,266.420 68.794,266.732 68.300 C 267.415 67.219,267.325 67.227,268.918 68.117 C 269.623 68.512,270.200 68.789,270.200 68.734 C 270.200 68.600,267.686 67.200,267.446 67.200 C 267.342 67.200,266.921 67.705,266.512 68.322 M270.400 68.850 C 270.400 68.903,270.750 69.178,271.177 69.461 C 271.604 69.744,272.482 70.403,273.127 70.926 C 273.772 71.448,274.169 71.715,274.009 71.518 C 273.520 70.916,270.400 68.610,270.400 68.850 M265.076 70.450 C 264.388 71.618,264.343 71.718,264.694 71.300 C 265.100 70.816,265.450 70.200,265.319 70.200 C 265.266 70.200,265.157 70.313,265.076 70.450 M276.012 73.500 C 276.944 74.490,278.148 75.885,278.686 76.600 C 279.788 78.064,280.146 78.475,279.877 77.966 C 279.457 77.173,277.106 74.388,275.769 73.100 C 274.348 71.731,274.354 71.740,276.012 73.500 M263.390 73.419 C 263.160 73.870,263.006 74.273,263.048 74.315 C 263.090 74.357,263.320 73.988,263.560 73.496 C 264.105 72.374,263.957 72.307,263.390 73.419 M262.325 75.796 C 261.874 76.924,261.943 77.092,262.418 76.021 C 262.633 75.537,262.773 75.106,262.729 75.063 C 262.686 75.019,262.504 75.349,262.325 75.796 M280.419 79.088 C 280.650 79.480,280.878 79.800,280.925 79.800 C 281.067 79.800,280.418 78.635,280.201 78.501 C 280.090 78.432,280.188 78.696,280.419 79.088 M260.617 80.717 C 260.488 81.229,260.419 81.686,260.465 81.732 C 260.511 81.778,260.654 81.396,260.783 80.883 C 260.912 80.371,260.981 79.914,260.935 79.868 C 260.889 79.822,260.746 80.204,260.617 80.717 M282.033 81.953 C 282.070 82.037,282.362 82.758,282.682 83.554 C 283.002 84.351,283.301 84.966,283.346 84.921 C 283.445 84.822,282.204 81.800,282.065 81.800 C 282.011 81.800,281.997 81.869,282.033 81.953 M260.100 82.800 C 260.023 83.255,260.005 83.672,260.060 83.727 C 260.115 83.782,260.223 83.455,260.300 83.000 C 260.377 82.545,260.395 82.128,260.340 82.073 C 260.285 82.018,260.177 82.345,260.100 82.800 M259.729 84.944 C 259.661 85.360,259.615 86.060,259.628 86.500 C 259.644 87.023,259.711 86.786,259.824 85.815 C 260.006 84.248,259.942 83.659,259.729 84.944 M126.650 85.006 C 125.980 85.275,126.105 85.412,126.800 85.170 C 127.130 85.055,127.400 84.925,127.400 84.880 C 127.400 84.762,127.157 84.803,126.650 85.006 M248.462 85.357 C 249.006 85.669,249.680 86.290,250.012 86.785 C 250.335 87.266,250.600 87.570,250.600 87.460 C 250.600 87.001,249.348 85.581,248.611 85.205 C 247.446 84.611,247.345 84.714,248.462 85.357 M125.287 86.050 L 124.700 86.700 125.350 86.113 C 125.708 85.790,126.000 85.497,126.000 85.463 C 126.000 85.308,125.835 85.444,125.287 86.050 M283.628 86.000 C 283.628 86.165,283.705 86.480,283.800 86.700 C 283.908 86.952,283.972 86.989,283.972 86.800 C 283.972 86.635,283.895 86.320,283.800 86.100 C 283.692 85.848,283.628 85.811,283.628 86.000 M284.040 87.500 C 284.040 87.720,284.112 88.125,284.200 88.400 C 284.327 88.796,284.360 88.817,284.360 88.500 C 284.360 88.280,284.288 87.875,284.200 87.600 C 284.073 87.204,284.040 87.183,284.040 87.500 M259.470 89.200 C 259.470 90.135,259.504 90.517,259.546 90.050 C 259.589 89.583,259.589 88.817,259.546 88.350 C 259.504 87.883,259.470 88.265,259.470 89.200 M250.654 88.600 C 250.654 89.095,250.693 89.298,250.741 89.050 C 250.789 88.803,250.789 88.398,250.741 88.150 C 250.693 87.903,250.654 88.105,250.654 88.600 M124.048 97.845 L 124.000 107.390 120.850 107.450 L 117.700 107.511 120.856 107.555 C 123.231 107.589,124.036 107.538,124.108 107.350 C 124.161 107.213,124.180 102.870,124.150 97.700 L 124.096 88.300 124.048 97.845 M289.300 89.591 C 288.750 89.662,289.965 89.681,292.000 89.633 C 294.035 89.586,295.738 89.514,295.783 89.473 C 295.921 89.352,290.377 89.453,289.300 89.591 M250.642 98.350 C 250.619 103.218,250.668 107.200,250.750 107.200 C 250.886 107.200,250.879 95.639,250.741 91.300 C 250.709 90.310,250.664 93.483,250.642 98.350 M296.350 89.741 C 296.598 89.789,297.002 89.789,297.250 89.741 C 297.498 89.693,297.295 89.654,296.800 89.654 C 296.305 89.654,296.103 89.693,296.350 89.741 M285.700 90.000 L 284.900 90.143 285.600 90.148 C 285.985 90.151,286.570 90.084,286.900 90.000 C 287.714 89.793,286.857 89.793,285.700 90.000 M298.900 90.000 C 299.230 90.084,299.725 90.153,300.000 90.153 C 300.446 90.153,300.435 90.136,299.900 90.000 C 299.570 89.916,299.075 89.847,298.800 89.847 C 298.354 89.847,298.365 89.864,298.900 90.000 M301.617 90.472 C 301.663 90.511,301.970 90.604,302.300 90.678 C 302.738 90.776,302.819 90.757,302.600 90.609 C 302.330 90.426,301.416 90.299,301.617 90.472 M303.200 90.857 C 303.348 91.015,305.660 91.806,305.740 91.726 C 305.778 91.689,305.424 91.517,304.954 91.345 C 303.834 90.935,303.075 90.724,303.200 90.857 M259.624 92.217 C 259.637 92.703,259.718 93.370,259.805 93.700 C 259.901 94.064,259.920 93.749,259.854 92.900 C 259.731 91.310,259.588 90.888,259.624 92.217 M306.017 91.866 C 306.063 91.902,306.730 92.264,307.500 92.671 C 308.270 93.078,308.720 93.266,308.500 93.089 C 308.062 92.738,306.297 91.800,306.073 91.800 C 305.996 91.800,305.971 91.830,306.017 91.866 M309.000 93.453 C 309.000 93.497,309.382 93.837,309.850 94.209 C 310.318 94.580,310.573 94.726,310.418 94.533 C 310.125 94.169,309.000 93.312,309.000 93.453 M260.040 94.900 C 260.040 95.120,260.112 95.525,260.200 95.800 C 260.327 96.196,260.360 96.217,260.360 95.900 C 260.360 95.680,260.288 95.275,260.200 95.000 C 260.073 94.604,260.040 94.583,260.040 94.900 M310.622 97.222 C 310.499 97.576,310.433 97.900,310.476 97.943 C 310.519 97.985,310.655 97.731,310.778 97.378 C 310.901 97.024,310.967 96.700,310.924 96.657 C 310.881 96.615,310.745 96.869,310.622 97.222 M260.615 97.114 C 260.594 97.416,261.229 99.238,261.322 99.145 C 261.364 99.103,261.226 98.580,261.014 97.984 C 260.802 97.388,260.623 96.996,260.615 97.114 M261.414 99.500 C 261.414 99.610,261.543 99.925,261.700 100.200 C 261.857 100.475,261.986 100.610,261.986 100.500 C 261.986 100.390,261.857 100.075,261.700 99.800 C 261.543 99.525,261.414 99.390,261.414 99.500 M307.954 102.459 C 306.474 104.687,304.239 107.001,301.485 109.157 C 300.977 109.554,301.003 109.549,301.679 109.119 C 303.597 107.899,307.266 104.056,308.461 102.017 C 309.042 101.025,308.718 101.307,307.954 102.459 M263.290 103.263 C 263.572 103.735,263.584 103.881,263.363 104.163 C 263.127 104.466,263.136 104.472,263.450 104.226 C 263.890 103.880,263.885 103.812,263.372 103.200 L 262.953 102.700 263.290 103.263 M261.300 105.107 C 260.798 105.349,260.781 105.376,261.200 105.276 C 261.475 105.209,261.786 105.075,261.890 104.978 C 262.149 104.735,262.007 104.767,261.300 105.107 M258.400 106.000 C 257.988 106.132,257.970 106.163,258.300 106.177 C 258.520 106.186,258.835 106.107,259.000 106.000 C 259.350 105.774,259.107 105.774,258.400 106.000 M256.300 106.508 L 255.300 106.778 256.200 106.664 C 256.695 106.601,257.280 106.476,257.500 106.387 C 258.124 106.135,257.421 106.206,256.300 106.508 M253.500 107.000 L 252.700 107.143 253.400 107.152 C 253.785 107.156,254.325 107.088,254.600 107.000 C 255.243 106.794,254.649 106.794,253.500 107.000 M251.552 107.341 C 251.801 107.389,252.161 107.387,252.352 107.337 C 252.544 107.287,252.340 107.248,251.900 107.250 C 251.460 107.253,251.304 107.294,251.552 107.341 M115.000 108.413 C 113.277 109.363,111.682 111.173,111.314 112.600 C 111.243 112.875,111.415 112.638,111.696 112.073 C 112.503 110.457,113.647 109.304,115.235 108.510 C 116.016 108.119,116.529 107.802,116.377 107.804 C 116.225 107.806,115.605 108.080,115.000 108.413 M298.750 110.814 C 298.338 111.031,298.000 111.254,298.000 111.309 C 298.000 111.363,298.360 111.224,298.800 111.000 C 299.240 110.776,299.600 110.549,299.600 110.496 C 299.600 110.365,299.599 110.366,298.750 110.814 M295.700 112.319 C 295.150 112.586,294.925 112.747,295.200 112.677 C 295.771 112.531,297.203 111.814,296.900 111.825 C 296.790 111.830,296.250 112.052,295.700 112.319 M110.944 113.466 C 110.705 114.075,110.762 114.586,111.020 114.144 C 111.134 113.948,111.196 113.633,111.158 113.444 C 111.094 113.130,111.076 113.132,110.944 113.466 M291.900 113.600 C 291.648 113.708,291.611 113.772,291.800 113.772 C 291.965 113.772,292.280 113.695,292.500 113.600 C 292.752 113.492,292.789 113.428,292.600 113.428 C 292.435 113.428,292.120 113.505,291.900 113.600 M290.200 114.000 L 289.700 114.160 290.200 114.166 C 290.475 114.169,290.880 114.095,291.100 114.000 L 291.500 113.828 291.100 113.834 C 290.880 113.837,290.475 113.912,290.200 114.000 M286.500 114.600 C 285.827 114.721,285.795 114.745,286.300 114.757 C 286.630 114.764,287.305 114.698,287.800 114.610 C 288.608 114.467,288.628 114.450,288.000 114.453 C 287.615 114.455,286.940 114.521,286.500 114.600 M280.263 115.150 C 280.194 115.343,280.093 115.581,280.038 115.681 C 279.983 115.780,280.042 115.798,280.169 115.719 C 280.296 115.641,280.400 115.450,280.400 115.295 C 280.400 115.076,280.853 115.000,282.450 114.949 L 284.500 114.884 282.444 114.842 C 280.643 114.805,280.372 114.844,280.263 115.150 M279.131 117.831 C 278.722 118.833,278.419 119.686,278.459 119.726 C 278.499 119.766,278.867 118.979,279.277 117.977 C 279.687 116.975,279.989 116.122,279.948 116.082 C 279.908 116.041,279.540 116.828,279.131 117.831 M110.850 119.300 C 110.846 119.960,110.910 121.040,110.992 121.700 L 111.141 122.900 111.151 121.600 C 111.156 120.885,111.092 119.805,111.008 119.200 L 110.856 118.100 110.850 119.300 M278.143 120.241 C 278.084 120.384,277.892 120.838,277.715 121.250 C 277.539 121.663,277.437 122.000,277.488 122.000 C 277.622 122.000,278.420 120.154,278.327 120.060 C 278.284 120.018,278.201 120.099,278.143 120.241 M276.219 124.522 C 275.878 125.250,275.604 125.902,275.609 125.972 C 275.620 126.133,276.372 124.713,276.733 123.850 C 277.220 122.687,276.854 123.165,276.219 124.522 M111.250 124.100 C 111.253 124.540,111.294 124.696,111.341 124.448 C 111.389 124.199,111.387 123.839,111.337 123.648 C 111.287 123.456,111.248 123.660,111.250 124.100 M111.424 126.017 C 111.437 126.503,111.518 127.170,111.605 127.500 C 111.701 127.864,111.720 127.549,111.654 126.700 C 111.531 125.110,111.388 124.688,111.424 126.017 M111.831 129.100 C 111.827 129.320,111.898 129.860,111.989 130.300 L 112.154 131.100 112.157 130.400 C 112.159 130.015,112.088 129.475,112.000 129.200 C 111.870 128.796,111.838 128.776,111.831 129.100 M272.400 132.200 C 272.176 132.640,272.037 133.000,272.092 133.000 C 272.147 133.000,272.376 132.640,272.600 132.200 C 272.824 131.760,272.963 131.400,272.908 131.400 C 272.853 131.400,272.624 131.760,272.400 132.200 M112.414 132.717 C 112.422 133.037,112.508 133.480,112.605 133.700 C 112.723 133.967,112.743 133.801,112.663 133.200 C 112.523 132.140,112.394 131.890,112.414 132.717 M271.400 134.000 C 271.176 134.440,271.037 134.800,271.092 134.800 C 271.147 134.800,271.376 134.440,271.600 134.000 C 271.824 133.560,271.963 133.200,271.908 133.200 C 271.853 133.200,271.624 133.560,271.400 134.000 M112.834 134.800 C 112.844 135.320,113.159 136.173,113.166 135.700 C 113.169 135.480,113.095 135.120,113.000 134.900 C 112.895 134.655,112.830 134.616,112.834 134.800 M113.332 137.100 C 113.401 137.540,113.533 138.080,113.625 138.300 C 113.732 138.554,113.748 138.408,113.668 137.900 C 113.599 137.460,113.467 136.920,113.375 136.700 C 113.268 136.446,113.252 136.592,113.332 137.100 M269.253 137.650 C 269.040 138.008,268.533 138.817,268.127 139.450 C 267.720 140.083,267.431 140.600,267.484 140.600 C 267.583 140.600,269.171 138.201,269.586 137.427 C 269.947 136.752,269.681 136.930,269.253 137.650 M113.834 139.000 C 113.844 139.520,114.159 140.373,114.166 139.900 C 114.169 139.680,114.095 139.320,114.000 139.100 C 113.895 138.855,113.830 138.816,113.834 139.000 M172.846 141.320 C 172.218 141.815,171.476 142.943,171.658 143.125 C 171.707 143.173,171.864 142.929,172.007 142.583 C 172.150 142.237,172.626 141.694,173.064 141.377 C 173.502 141.060,173.779 140.801,173.680 140.802 C 173.581 140.803,173.206 141.036,172.846 141.320 M114.428 141.200 C 114.428 141.365,114.505 141.680,114.600 141.900 C 114.708 142.152,114.772 142.189,114.772 142.000 C 114.772 141.835,114.695 141.520,114.600 141.300 C 114.492 141.048,114.428 141.011,114.428 141.200 M175.623 141.965 C 175.599 142.659,176.478 143.801,177.035 143.799 C 177.181 143.799,177.010 143.622,176.655 143.405 C 176.301 143.189,175.967 142.807,175.913 142.556 C 175.859 142.305,175.778 141.920,175.731 141.700 C 175.682 141.470,175.637 141.583,175.623 141.965 M114.824 142.600 C 114.821 142.765,114.942 143.170,115.093 143.500 C 115.446 144.272,115.452 143.913,115.100 143.000 C 114.952 142.615,114.828 142.435,114.824 142.600 M264.489 144.734 C 262.389 147.596,259.850 150.678,257.629 153.064 C 256.623 154.144,255.800 155.074,255.800 155.130 C 255.800 155.287,258.610 152.267,260.319 150.272 C 262.347 147.906,266.373 142.600,266.141 142.600 C 266.094 142.600,265.350 143.560,264.489 144.734 M171.460 144.400 C 171.460 145.005,171.497 145.253,171.543 144.950 C 171.589 144.648,171.589 144.153,171.543 143.850 C 171.497 143.547,171.460 143.795,171.460 144.400 M178.200 143.616 C 177.969 143.778,178.010 143.795,178.377 143.691 C 178.846 143.558,178.852 143.574,178.759 144.696 C 178.698 145.426,178.729 145.721,178.843 145.515 C 179.328 144.649,178.829 143.176,178.200 143.616 M171.606 145.739 C 171.603 145.870,171.803 146.190,172.050 146.449 C 172.298 146.708,172.400 146.780,172.278 146.610 C 172.156 146.439,171.956 146.120,171.834 145.900 C 171.712 145.680,171.609 145.607,171.606 145.739 M177.615 146.976 C 177.129 147.457,176.904 147.758,177.115 147.643 C 177.556 147.404,178.714 146.230,178.585 146.152 C 178.538 146.123,178.102 146.494,177.615 146.976 M116.315 147.000 C 116.388 147.275,116.532 147.635,116.634 147.800 C 116.763 148.008,116.778 147.947,116.685 147.600 C 116.612 147.325,116.468 146.965,116.366 146.800 C 116.237 146.592,116.222 146.653,116.315 147.000 M174.069 148.047 C 174.196 148.128,174.705 148.194,175.200 148.194 C 175.695 148.194,176.204 148.128,176.331 148.047 C 176.458 147.966,175.949 147.900,175.200 147.900 C 174.451 147.900,173.942 147.966,174.069 148.047 M117.214 149.300 C 117.214 149.410,117.343 149.725,117.500 150.000 C 117.657 150.275,117.786 150.410,117.786 150.300 C 117.786 150.190,117.657 149.875,117.500 149.600 C 117.343 149.325,117.214 149.190,117.214 149.300 M118.800 152.875 C 118.800 153.091,119.594 154.600,119.708 154.600 C 119.763 154.600,119.615 154.218,119.379 153.750 C 118.916 152.831,118.800 152.656,118.800 152.875 M120.600 156.400 C 120.824 156.840,121.053 157.200,121.108 157.200 C 121.163 157.200,121.024 156.840,120.800 156.400 C 120.576 155.960,120.347 155.600,120.292 155.600 C 120.237 155.600,120.376 155.960,120.600 156.400 M253.417 157.350 C 252.576 158.203,252.385 158.441,252.994 157.881 C 253.602 157.320,254.369 156.623,254.698 156.331 C 255.027 156.039,255.217 155.800,255.121 155.800 C 255.025 155.800,254.258 156.498,253.417 157.350 M121.974 158.700 C 122.082 158.920,122.317 159.280,122.496 159.500 L 122.822 159.900 122.626 159.500 C 122.518 159.280,122.283 158.920,122.104 158.700 L 121.778 158.300 121.974 158.700 M251.182 159.322 C 251.034 159.499,249.829 160.512,248.502 161.572 C 247.176 162.633,245.777 163.754,245.395 164.063 L 244.700 164.627 245.400 164.167 C 247.112 163.042,251.927 159.000,251.555 159.000 C 251.497 159.000,251.329 159.145,251.182 159.322 M160.200 160.000 C 159.375 160.429,158.770 160.785,158.855 160.790 C 159.068 160.804,161.800 159.419,161.800 159.297 C 161.800 159.162,161.866 159.134,160.200 160.000 M123.793 161.490 C 124.130 161.979,124.501 162.439,124.617 162.511 C 124.734 162.583,124.499 162.182,124.096 161.621 C 123.195 160.367,122.947 160.259,123.793 161.490 M157.050 161.406 C 156.380 161.675,156.505 161.812,157.200 161.570 C 157.530 161.455,157.800 161.325,157.800 161.280 C 157.800 161.162,157.557 161.203,157.050 161.406 M125.004 163.100 C 125.641 163.993,128.631 167.359,129.534 168.199 C 130.153 168.774,130.025 168.594,129.179 167.699 C 128.453 166.929,127.248 165.580,126.501 164.700 C 125.064 163.007,124.534 162.440,125.004 163.100 M151.428 163.429 C 151.059 163.536,150.794 163.660,150.839 163.706 C 150.940 163.807,152.400 163.418,152.400 163.291 C 152.400 163.173,152.241 163.195,151.428 163.429 M149.500 164.000 C 149.248 164.108,149.211 164.172,149.400 164.172 C 149.565 164.172,149.880 164.095,150.100 164.000 C 150.352 163.892,150.389 163.828,150.200 163.828 C 150.035 163.828,149.720 163.905,149.500 164.000 M147.700 164.400 C 147.156 164.539,147.146 164.554,147.600 164.562 C 147.875 164.568,148.280 164.495,148.500 164.400 C 148.993 164.188,148.533 164.188,147.700 164.400 M243.126 165.599 C 241.754 166.580,241.232 167.013,241.800 166.698 C 242.323 166.407,244.600 164.768,244.600 164.682 C 244.600 164.548,244.558 164.574,243.126 165.599 M144.300 165.000 L 143.500 165.143 144.200 165.152 C 144.585 165.156,145.125 165.088,145.400 165.000 C 146.043 164.794,145.449 164.794,144.300 165.000 M132.200 165.625 C 132.200 165.990,136.343 169.447,137.500 170.047 C 138.071 170.343,137.932 170.226,135.700 168.530 C 133.742 167.043,132.400 165.897,132.400 165.713 C 132.400 165.662,132.873 165.588,133.450 165.547 L 134.500 165.474 133.350 165.437 C 132.610 165.413,132.200 165.480,132.200 165.625 M139.850 165.546 C 140.263 165.589,140.938 165.589,141.350 165.546 C 141.763 165.503,141.425 165.467,140.600 165.467 C 139.775 165.467,139.438 165.503,139.850 165.546 M135.657 165.748 C 136.294 165.788,137.284 165.787,137.857 165.747 C 138.431 165.707,137.910 165.674,136.700 165.675 C 135.490 165.675,135.021 165.708,135.657 165.748 M240.050 167.623 C 239.368 168.060,239.148 168.353,239.750 168.022 C 240.209 167.769,240.928 167.214,240.800 167.210 C 240.745 167.208,240.407 167.394,240.050 167.623 M130.977 169.458 C 131.240 169.747,132.005 170.407,132.677 170.924 C 134.190 172.087,133.774 171.642,131.900 170.091 C 131.130 169.454,130.715 169.169,130.977 169.458 M233.950 171.112 C 232.988 171.603,232.200 172.049,232.200 172.104 C 232.200 172.159,233.010 171.797,234.000 171.300 C 234.990 170.803,235.800 170.352,235.800 170.298 C 235.800 170.163,235.894 170.122,233.950 171.112 M139.600 171.299 C 139.600 171.432,143.224 173.242,143.313 173.154 C 143.352 173.115,142.533 172.659,141.492 172.143 C 140.451 171.626,139.600 171.246,139.600 171.299 M135.047 172.645 C 135.641 173.150,136.800 173.874,136.800 173.740 C 136.800 173.694,136.282 173.324,135.650 172.918 C 135.018 172.512,134.746 172.389,135.047 172.645 M230.800 172.700 C 230.305 172.965,229.990 173.182,230.100 173.182 C 230.210 173.182,230.705 172.965,231.200 172.700 C 231.695 172.435,232.010 172.218,231.900 172.218 C 231.790 172.218,231.295 172.435,230.800 172.700 M137.000 173.890 C 137.000 173.945,137.270 174.129,137.600 174.300 C 137.930 174.471,138.200 174.565,138.200 174.510 C 138.200 174.455,137.930 174.271,137.600 174.100 C 137.270 173.929,137.000 173.835,137.000 173.890 M145.700 174.186 C 146.140 174.397,146.635 174.573,146.800 174.577 C 147.143 174.585,146.119 174.113,145.387 173.926 C 145.119 173.857,145.260 173.974,145.700 174.186 M147.400 174.766 C 147.565 174.868,147.925 175.012,148.200 175.085 C 148.547 175.178,148.608 175.163,148.400 175.034 C 148.235 174.932,147.875 174.788,147.600 174.715 C 147.253 174.622,147.192 174.637,147.400 174.766 M139.600 175.299 C 139.600 175.434,141.225 176.242,141.315 176.152 C 141.357 176.110,140.988 175.880,140.496 175.640 C 140.003 175.401,139.600 175.247,139.600 175.299 M223.901 175.627 C 222.811 176.069,222.403 176.341,223.199 176.096 C 223.934 175.869,225.332 175.229,225.100 175.225 C 224.990 175.223,224.450 175.404,223.901 175.627 M151.100 176.000 C 151.320 176.095,151.635 176.172,151.800 176.172 C 151.989 176.172,151.952 176.108,151.700 176.000 C 151.480 175.905,151.165 175.828,151.000 175.828 C 150.811 175.828,150.848 175.892,151.100 176.000 M142.000 176.500 C 142.275 176.657,142.590 176.786,142.700 176.786 C 142.810 176.786,142.675 176.657,142.400 176.500 C 142.125 176.343,141.810 176.214,141.700 176.214 C 141.590 176.214,141.725 176.343,142.000 176.500 M152.600 176.391 C 152.765 176.503,153.072 176.595,153.283 176.597 C 153.795 176.601,153.635 176.487,152.900 176.322 C 152.462 176.224,152.381 176.243,152.600 176.391 M154.100 176.775 C 154.320 176.867,154.860 176.999,155.300 177.068 C 155.808 177.148,155.954 177.132,155.700 177.025 C 155.480 176.933,154.940 176.801,154.500 176.732 C 153.992 176.652,153.846 176.668,154.100 176.775 M220.500 176.907 C 220.000 177.148,219.983 177.176,220.400 177.074 C 220.967 176.935,221.604 176.611,221.300 176.615 C 221.190 176.617,220.830 176.748,220.500 176.907 M144.200 177.366 C 144.365 177.468,144.725 177.612,145.000 177.685 C 145.347 177.778,145.408 177.763,145.200 177.634 C 145.035 177.532,144.675 177.388,144.400 177.315 C 144.053 177.222,143.992 177.237,144.200 177.366 M156.800 177.400 C 157.075 177.488,157.525 177.558,157.800 177.556 C 158.249 177.553,158.239 177.537,157.700 177.400 C 156.854 177.185,156.128 177.185,156.800 177.400 M218.038 177.642 C 217.343 177.862,216.812 178.079,216.857 178.124 C 216.957 178.223,219.600 177.422,219.600 177.292 C 219.600 177.161,219.451 177.194,218.038 177.642 M159.900 178.000 C 160.230 178.084,160.725 178.153,161.000 178.153 C 161.446 178.153,161.435 178.136,160.900 178.000 C 160.570 177.916,160.075 177.847,159.800 177.847 C 159.354 177.847,159.365 177.864,159.900 178.000 M146.800 178.271 C 146.800 178.417,149.434 179.233,149.545 179.121 C 149.592 179.075,149.131 178.892,148.522 178.715 C 147.913 178.538,147.276 178.340,147.107 178.275 C 146.938 178.210,146.800 178.208,146.800 178.271 M215.428 178.429 C 215.059 178.536,214.795 178.662,214.842 178.709 C 214.890 178.756,215.327 178.670,215.814 178.517 C 216.809 178.205,216.473 178.129,215.428 178.429 M163.352 178.541 C 163.601 178.589,163.961 178.587,164.152 178.537 C 164.344 178.487,164.140 178.448,163.700 178.450 C 163.260 178.453,163.104 178.494,163.352 178.541 M166.017 178.876 C 166.063 178.918,166.910 179.001,167.900 179.060 C 169.226 179.140,169.437 179.125,168.700 179.002 C 167.658 178.828,165.872 178.744,166.017 178.876 M213.500 179.000 C 212.990 179.219,213.516 179.219,214.200 179.000 C 214.602 178.871,214.622 178.839,214.300 178.834 C 214.080 178.831,213.720 178.905,213.500 179.000 M150.200 179.374 C 150.365 179.473,150.815 179.610,151.200 179.678 C 151.672 179.762,151.770 179.746,151.500 179.631 C 150.882 179.366,149.845 179.161,150.200 179.374 M171.250 179.343 C 171.553 179.389,172.048 179.389,172.350 179.343 C 172.653 179.297,172.405 179.260,171.800 179.260 C 171.195 179.260,170.947 179.297,171.250 179.343 M212.000 179.400 C 211.598 179.529,211.578 179.561,211.900 179.566 C 212.120 179.569,212.480 179.495,212.700 179.400 C 213.210 179.181,212.684 179.181,212.000 179.400 M174.158 179.548 C 174.850 179.587,175.930 179.587,176.558 179.548 C 177.186 179.508,176.620 179.476,175.300 179.476 C 173.980 179.477,173.466 179.509,174.158 179.548 M185.350 179.548 C 186.038 179.587,187.163 179.587,187.850 179.548 C 188.538 179.509,187.975 179.477,186.600 179.477 C 185.225 179.477,184.663 179.509,185.350 179.548 M210.000 179.856 C 209.505 179.973,209.235 180.100,209.400 180.138 C 209.565 180.176,210.105 180.079,210.600 179.923 C 211.656 179.590,211.293 179.550,210.000 179.856 M152.300 180.000 C 152.520 180.095,152.880 180.169,153.100 180.166 C 153.422 180.161,153.402 180.129,153.000 180.000 C 152.316 179.781,151.790 179.781,152.300 180.000 M154.000 180.400 C 154.275 180.488,154.680 180.560,154.900 180.560 C 155.217 180.560,155.196 180.527,154.800 180.400 C 154.525 180.312,154.120 180.240,153.900 180.240 C 153.583 180.240,153.604 180.273,154.000 180.400 M207.700 180.400 C 207.156 180.539,207.146 180.554,207.600 180.562 C 207.875 180.568,208.280 180.495,208.500 180.400 C 208.993 180.188,208.533 180.188,207.700 180.400 M156.700 181.000 C 157.546 181.215,158.272 181.215,157.600 181.000 C 157.325 180.912,156.875 180.842,156.600 180.844 C 156.151 180.847,156.161 180.863,156.700 181.000 M204.700 181.000 C 204.161 181.137,204.151 181.153,204.600 181.156 C 204.875 181.158,205.325 181.088,205.600 181.000 C 206.272 180.785,205.546 180.785,204.700 181.000 M158.800 181.379 C 159.075 181.466,159.795 181.591,160.400 181.658 C 161.042 181.729,161.292 181.713,161.000 181.621 C 160.725 181.534,160.005 181.409,159.400 181.342 C 158.758 181.271,158.508 181.287,158.800 181.379 M202.400 181.400 C 201.722 181.543,201.719 181.548,202.300 181.554 C 202.630 181.557,203.125 181.488,203.400 181.400 C 204.056 181.190,203.398 181.190,202.400 181.400 M161.817 181.875 C 161.863 181.916,162.440 182.000,163.100 182.062 C 163.889 182.135,164.095 182.117,163.700 182.010 C 163.083 181.843,161.668 181.741,161.817 181.875 M198.400 182.000 C 197.400 182.210,198.426 182.219,199.600 182.010 C 200.412 181.866,200.431 181.850,199.800 181.851 C 199.415 181.852,198.785 181.919,198.400 182.000 M165.600 182.403 C 166.510 182.572,168.537 182.662,168.383 182.527 C 168.338 182.486,167.490 182.404,166.500 182.344 C 165.231 182.268,164.966 182.285,165.600 182.403 M194.800 182.400 C 193.700 182.535,193.700 182.535,194.600 182.553 C 195.095 182.562,195.905 182.498,196.400 182.410 C 197.573 182.202,196.477 182.195,194.800 182.400 M168.950 182.741 C 169.197 182.789,169.603 182.789,169.850 182.741 C 170.097 182.693,169.895 182.654,169.400 182.654 C 168.905 182.654,168.703 182.693,168.950 182.741 M192.053 182.744 C 192.357 182.789,192.807 182.788,193.053 182.741 C 193.299 182.693,193.050 182.656,192.500 182.657 C 191.950 182.659,191.749 182.698,192.053 182.744 M171.900 183.008 C 172.560 183.090,173.775 183.153,174.600 183.148 L 176.100 183.139 174.800 182.993 C 174.085 182.913,172.870 182.849,172.100 182.853 L 170.700 182.859 171.900 183.008 M186.700 183.000 L 185.500 183.133 187.000 183.143 C 187.825 183.149,189.085 183.087,189.800 183.007 L 191.100 182.861 189.500 182.864 C 188.620 182.866,187.360 182.927,186.700 183.000 " stroke="none" fill="#95abd1" fill-rule="evenodd"></path><path id="path3" d="M226.247 63.850 C 226.221 75.263,226.268 84.600,226.350 84.600 C 226.486 84.600,226.485 69.940,226.347 50.500 C 226.319 46.430,226.274 52.438,226.247 63.850 M164.350 61.950 C 170.317 61.979,180.082 61.979,186.050 61.950 C 192.017 61.921,187.135 61.896,175.200 61.896 C 163.265 61.896,158.382 61.921,164.350 61.950 M149.589 63.350 L 148.900 64.100 149.650 63.411 C 150.348 62.769,150.492 62.600,150.339 62.600 C 150.306 62.600,149.968 62.938,149.589 63.350 M264.000 72.000 C 263.776 72.440,263.637 72.800,263.692 72.800 C 263.747 72.800,263.976 72.440,264.200 72.000 C 264.424 71.560,264.563 71.200,264.508 71.200 C 264.453 71.200,264.224 71.560,264.000 72.000 M275.900 73.200 C 276.664 73.970,277.334 74.600,277.389 74.600 C 277.444 74.600,276.864 73.970,276.100 73.200 C 275.336 72.430,274.666 71.800,274.611 71.800 C 274.556 71.800,275.136 72.430,275.900 73.200 M261.822 76.622 C 261.699 76.976,261.633 77.300,261.676 77.343 C 261.719 77.385,261.855 77.131,261.978 76.778 C 262.101 76.424,262.167 76.100,262.124 76.057 C 262.081 76.015,261.945 76.269,261.822 76.622 M126.800 84.809 C 126.581 84.957,126.662 84.976,127.100 84.878 C 127.835 84.713,127.995 84.599,127.483 84.603 C 127.272 84.605,126.965 84.697,126.800 84.809 M125.538 85.650 C 124.915 86.267,124.913 86.275,125.491 85.802 C 125.826 85.527,126.186 85.235,126.290 85.152 C 126.394 85.068,126.416 85.000,126.337 85.000 C 126.258 85.000,125.899 85.293,125.538 85.650 M259.446 87.000 C 259.446 87.385,259.488 87.543,259.538 87.350 C 259.588 87.158,259.588 86.843,259.538 86.650 C 259.488 86.458,259.446 86.615,259.446 87.000 M124.125 87.508 C 124.056 87.686,124.008 87.983,124.017 88.166 C 124.027 88.350,124.114 88.235,124.211 87.910 C 124.399 87.279,124.332 86.966,124.125 87.508 M250.892 97.200 C 250.892 102.205,250.918 104.253,250.950 101.750 C 250.982 99.248,250.982 95.153,250.950 92.650 C 250.918 90.148,250.892 92.195,250.892 97.200 M259.246 89.200 C 259.246 89.585,259.288 89.743,259.338 89.550 C 259.388 89.358,259.388 89.043,259.338 88.850 C 259.288 88.658,259.246 88.815,259.246 89.200 M289.152 89.541 C 289.401 89.589,289.761 89.587,289.952 89.537 C 290.144 89.487,289.940 89.448,289.500 89.450 C 289.060 89.453,288.904 89.494,289.152 89.541 M296.152 89.541 C 296.401 89.589,296.761 89.587,296.952 89.537 C 297.144 89.487,296.940 89.448,296.500 89.450 C 296.060 89.453,295.904 89.494,296.152 89.541 M287.053 89.744 C 287.357 89.789,287.807 89.788,288.053 89.741 C 288.299 89.693,288.050 89.656,287.500 89.657 C 286.950 89.659,286.749 89.698,287.053 89.744 M297.952 89.741 C 298.201 89.789,298.561 89.787,298.752 89.737 C 298.944 89.687,298.740 89.648,298.300 89.650 C 297.860 89.653,297.704 89.694,297.952 89.741 M300.800 90.200 C 301.484 90.419,302.010 90.419,301.500 90.200 C 301.280 90.105,300.920 90.031,300.700 90.034 C 300.378 90.039,300.398 90.071,300.800 90.200 M259.446 91.400 C 259.446 91.785,259.488 91.942,259.538 91.750 C 259.588 91.558,259.588 91.243,259.538 91.050 C 259.488 90.858,259.446 91.015,259.446 91.400 M310.072 94.154 C 310.230 94.410,311.400 95.276,311.400 95.137 C 311.400 95.088,311.070 94.795,310.666 94.487 C 310.262 94.179,309.995 94.030,310.072 94.154 M305.092 106.250 L 304.100 107.300 305.150 106.308 C 305.728 105.762,306.200 105.289,306.200 105.258 C 306.200 105.108,306.015 105.274,305.092 106.250 M251.126 107.158 C 251.072 107.245,251.359 107.284,251.764 107.244 C 252.871 107.134,253.003 107.034,252.062 107.016 C 251.601 107.007,251.180 107.071,251.126 107.158 M112.989 109.750 L 112.300 110.500 113.050 109.811 C 113.748 109.169,113.892 109.000,113.739 109.000 C 113.706 109.000,113.368 109.338,112.989 109.750 M300.900 109.718 L 300.300 110.233 300.950 109.803 C 301.308 109.566,301.600 109.334,301.600 109.286 C 301.600 109.137,301.515 109.189,300.900 109.718 M297.400 111.700 C 296.905 111.965,296.571 112.186,296.658 112.191 C 296.870 112.203,298.400 111.417,298.400 111.296 C 298.400 111.163,298.408 111.160,297.400 111.700 M111.022 112.822 C 110.899 113.176,110.833 113.500,110.876 113.543 C 110.919 113.585,111.055 113.331,111.178 112.978 C 111.301 112.624,111.367 112.300,111.324 112.257 C 111.281 112.215,111.145 112.469,111.022 112.822 M284.954 114.945 C 285.313 114.989,285.853 114.989,286.154 114.943 C 286.454 114.897,286.160 114.861,285.500 114.862 C 284.840 114.863,284.594 114.900,284.954 114.945 M281.550 115.145 C 281.907 115.189,282.493 115.189,282.850 115.145 C 283.207 115.100,282.915 115.064,282.200 115.064 C 281.485 115.064,281.193 115.100,281.550 115.145 M110.850 121.500 C 110.853 121.940,110.894 122.096,110.941 121.848 C 110.989 121.599,110.987 121.239,110.937 121.048 C 110.887 120.856,110.848 121.060,110.850 121.500 M111.057 123.700 C 111.059 124.250,111.098 124.451,111.144 124.147 C 111.189 123.843,111.188 123.393,111.141 123.147 C 111.093 122.901,111.056 123.150,111.057 123.700 M275.238 126.910 C 274.635 128.150,274.702 128.323,275.323 127.130 C 275.601 126.597,275.793 126.127,275.751 126.085 C 275.710 126.043,275.478 126.414,275.238 126.910 M111.650 128.700 C 111.653 129.140,111.694 129.296,111.741 129.048 C 111.789 128.799,111.787 128.439,111.737 128.248 C 111.687 128.056,111.648 128.260,111.650 128.700 M273.800 129.800 C 273.576 130.240,273.437 130.600,273.492 130.600 C 273.547 130.600,273.776 130.240,274.000 129.800 C 274.224 129.360,274.363 129.000,274.308 129.000 C 274.253 129.000,274.024 129.360,273.800 129.800 M112.531 134.100 C 112.598 134.540,112.686 134.938,112.727 134.983 C 112.878 135.155,112.765 134.084,112.591 133.700 C 112.464 133.421,112.446 133.542,112.531 134.100 M174.450 137.946 C 174.863 137.989,175.538 137.989,175.950 137.946 C 176.363 137.903,176.025 137.867,175.200 137.867 C 174.375 137.867,174.038 137.903,174.450 137.946 M178.500 138.739 C 179.144 139.397,180.440 140.421,180.000 139.925 C 179.725 139.615,179.230 139.175,178.900 138.948 C 178.570 138.721,178.390 138.627,178.500 138.739 M174.997 140.542 C 175.490 140.589,175.969 140.734,176.062 140.864 C 176.178 141.027,176.205 141.007,176.150 140.800 C 176.093 140.589,175.777 140.494,175.084 140.478 L 174.100 140.457 174.997 140.542 M175.850 141.900 C 175.853 142.340,175.894 142.496,175.941 142.248 C 175.989 141.999,175.987 141.639,175.937 141.448 C 175.887 141.256,175.848 141.460,175.850 141.900 M266.293 142.450 C 265.984 142.917,265.860 143.194,266.016 143.065 C 266.316 142.817,267.082 141.600,266.938 141.600 C 266.891 141.600,266.601 141.983,266.293 142.450 M168.630 144.300 C 168.629 144.960,168.701 145.680,168.790 145.900 C 168.884 146.132,168.913 145.714,168.859 144.900 C 168.739 143.071,168.632 142.792,168.630 144.300 M177.600 143.600 C 177.188 143.732,177.170 143.763,177.500 143.777 C 177.720 143.786,178.035 143.707,178.200 143.600 C 178.550 143.374,178.307 143.374,177.600 143.600 M171.250 144.300 C 171.253 144.740,171.294 144.896,171.341 144.648 C 171.389 144.399,171.387 144.039,171.337 143.848 C 171.287 143.656,171.248 143.860,171.250 144.300 M172.400 147.100 C 172.773 147.485,173.123 147.800,173.178 147.800 C 173.233 147.800,172.973 147.485,172.600 147.100 C 172.227 146.715,171.877 146.400,171.822 146.400 C 171.767 146.400,172.027 146.715,172.400 147.100 M177.887 147.050 L 177.300 147.700 177.950 147.113 C 178.308 146.790,178.600 146.497,178.600 146.463 C 178.600 146.308,178.435 146.444,177.887 147.050 M170.000 148.463 C 170.000 148.497,170.293 148.790,170.650 149.113 L 171.300 149.700 170.713 149.050 C 170.165 148.444,170.000 148.308,170.000 148.463 M173.100 150.600 C 173.320 150.695,173.635 150.772,173.800 150.772 C 173.989 150.772,173.952 150.708,173.700 150.600 C 173.480 150.505,173.165 150.428,173.000 150.428 C 172.811 150.428,172.848 150.492,173.100 150.600 M176.700 150.600 C 176.448 150.708,176.411 150.772,176.600 150.772 C 176.765 150.772,177.080 150.695,177.300 150.600 C 177.552 150.492,177.589 150.428,177.400 150.428 C 177.235 150.428,176.920 150.505,176.700 150.600 M259.589 151.150 L 258.900 151.900 259.650 151.211 C 260.348 150.569,260.492 150.400,260.339 150.400 C 260.306 150.400,259.968 150.738,259.589 151.150 M257.494 153.450 L 256.300 154.700 257.550 153.506 C 258.711 152.397,258.892 152.200,258.744 152.200 C 258.713 152.200,258.150 152.763,257.494 153.450 M252.993 157.950 L 251.900 159.100 253.050 158.007 C 254.118 156.991,254.292 156.800,254.143 156.800 C 254.112 156.800,253.594 157.317,252.993 157.950 M251.087 159.650 L 250.500 160.300 251.150 159.713 C 251.756 159.165,251.892 159.000,251.737 159.000 C 251.703 159.000,251.410 159.293,251.087 159.650 M164.600 160.200 C 164.835 160.530,165.072 160.800,165.127 160.800 C 165.182 160.800,165.035 160.530,164.800 160.200 C 164.565 159.870,164.328 159.600,164.273 159.600 C 164.218 159.600,164.365 159.870,164.600 160.200 M166.400 162.600 C 166.748 163.040,167.079 163.400,167.134 163.400 C 167.189 163.400,166.948 163.040,166.600 162.600 C 166.252 162.160,165.921 161.800,165.866 161.800 C 165.811 161.800,166.052 162.160,166.400 162.600 M167.400 163.863 C 167.400 163.897,167.692 164.190,168.050 164.513 L 168.700 165.100 168.113 164.450 C 167.565 163.844,167.400 163.708,167.400 163.863 M146.400 164.800 C 145.708 164.946,145.707 164.948,146.300 164.971 C 146.630 164.983,147.035 164.907,147.200 164.800 C 147.533 164.585,147.422 164.585,146.400 164.800 M126.400 165.063 C 126.400 165.097,126.692 165.390,127.050 165.713 L 127.700 166.300 127.113 165.650 C 126.565 165.044,126.400 164.908,126.400 165.063 M143.450 165.338 C 143.643 165.388,143.958 165.388,144.150 165.338 C 144.343 165.288,144.185 165.246,143.800 165.246 C 143.415 165.246,143.258 165.288,143.450 165.338 M170.100 166.800 C 170.864 167.570,171.534 168.200,171.589 168.200 C 171.644 168.200,171.064 167.570,170.300 166.800 C 169.536 166.030,168.866 165.400,168.811 165.400 C 168.756 165.400,169.336 166.030,170.100 166.800 M136.150 165.945 C 136.508 165.989,137.093 165.989,137.450 165.945 C 137.808 165.900,137.515 165.864,136.800 165.864 C 136.085 165.864,135.792 165.900,136.150 165.945 M133.000 166.263 C 133.000 166.297,133.292 166.590,133.650 166.913 L 134.300 167.500 133.713 166.850 C 133.165 166.244,133.000 166.108,133.000 166.263 M128.600 167.463 C 128.600 167.497,128.893 167.790,129.250 168.113 L 129.900 168.700 129.313 168.050 C 128.765 167.444,128.600 167.308,128.600 167.463 M131.000 169.700 C 131.373 170.085,131.723 170.400,131.778 170.400 C 131.833 170.400,131.573 170.085,131.200 169.700 C 130.827 169.315,130.477 169.000,130.422 169.000 C 130.367 169.000,130.627 169.315,131.000 169.700 M237.150 169.514 C 236.402 169.920,236.448 170.089,237.200 169.700 C 237.530 169.529,237.800 169.347,237.800 169.295 C 237.800 169.166,237.779 169.173,237.150 169.514 M137.900 170.104 C 138.120 170.283,138.480 170.518,138.700 170.626 L 139.100 170.822 138.700 170.496 C 138.480 170.317,138.120 170.082,137.900 169.974 L 137.500 169.778 137.900 170.104 M134.300 172.294 C 134.904 172.823,135.600 173.277,135.600 173.141 C 135.600 173.101,135.172 172.775,134.650 172.418 C 133.931 171.926,133.846 171.896,134.300 172.294 M158.600 177.600 C 159.284 177.819,159.810 177.819,159.300 177.600 C 159.080 177.505,158.720 177.431,158.500 177.434 C 158.178 177.439,158.198 177.471,158.600 177.600 M186.200 177.715 C 186.200 177.850,187.239 178.228,187.338 178.129 C 187.383 178.083,187.146 177.951,186.810 177.834 C 186.475 177.717,186.200 177.663,186.200 177.715 M188.600 178.667 C 188.600 178.719,188.890 178.862,189.245 178.986 C 189.600 179.110,189.803 179.129,189.695 179.028 C 189.468 178.815,188.600 178.529,188.600 178.667 M168.250 178.938 C 168.442 178.988,168.758 178.988,168.950 178.938 C 169.143 178.888,168.985 178.846,168.600 178.846 C 168.215 178.846,168.058 178.888,168.250 178.938 M149.000 179.170 C 149.165 179.267,149.570 179.404,149.900 179.476 C 150.284 179.559,150.392 179.542,150.200 179.430 C 150.035 179.333,149.630 179.196,149.300 179.124 C 148.916 179.041,148.808 179.058,149.000 179.170 M170.154 179.145 C 170.513 179.189,171.053 179.189,171.354 179.143 C 171.654 179.097,171.360 179.061,170.700 179.062 C 170.040 179.063,169.794 179.100,170.154 179.145 M173.253 179.344 C 173.557 179.389,174.007 179.388,174.253 179.341 C 174.499 179.293,174.250 179.256,173.700 179.257 C 173.150 179.259,172.949 179.298,173.253 179.344 M187.554 179.345 C 187.913 179.389,188.453 179.389,188.754 179.343 C 189.054 179.297,188.760 179.261,188.100 179.262 C 187.440 179.263,187.194 179.300,187.554 179.345 M179.260 179.549 C 180.228 179.586,181.758 179.586,182.660 179.549 C 183.562 179.512,182.770 179.482,180.900 179.482 C 179.030 179.482,178.292 179.512,179.260 179.549 M163.850 182.338 C 164.043 182.388,164.358 182.388,164.550 182.338 C 164.743 182.288,164.585 182.246,164.200 182.246 C 163.815 182.246,163.658 182.288,163.850 182.338 M197.450 182.338 C 197.643 182.388,197.958 182.388,198.150 182.338 C 198.343 182.288,198.185 182.246,197.800 182.246 C 197.415 182.246,197.258 182.288,197.450 182.338 M169.250 182.943 C 169.553 182.989,170.048 182.989,170.350 182.943 C 170.653 182.897,170.405 182.860,169.800 182.860 C 169.195 182.860,168.947 182.897,169.250 182.943 M191.450 182.943 C 191.753 182.989,192.248 182.989,192.550 182.943 C 192.853 182.897,192.605 182.860,192.000 182.860 C 191.395 182.860,191.148 182.897,191.450 182.943 M171.752 183.141 C 172.001 183.189,172.361 183.187,172.552 183.137 C 172.744 183.087,172.540 183.048,172.100 183.050 C 171.660 183.053,171.504 183.094,171.752 183.141 M189.150 183.141 C 189.398 183.189,189.803 183.189,190.050 183.141 C 190.298 183.093,190.095 183.054,189.600 183.054 C 189.105 183.054,188.903 183.093,189.150 183.141 " stroke="none" fill="#c9d9ed" fill-rule="evenodd"></path><path id="path4" d="M174.550 137.745 C 174.908 137.789,175.493 137.789,175.850 137.745 C 176.208 137.700,175.915 137.664,175.200 137.664 C 174.485 137.664,174.192 137.700,174.550 137.745 M172.922 137.943 C 172.115 138.150,170.329 139.465,169.872 140.190 C 169.686 140.484,169.969 140.294,170.540 139.742 C 171.128 139.173,172.011 138.586,172.715 138.297 C 173.794 137.853,173.886 137.696,172.922 137.943 M177.529 138.216 C 178.959 138.767,180.256 139.975,180.987 141.438 C 181.324 142.112,181.599 142.537,181.598 142.382 C 181.589 140.945,178.269 137.785,176.800 137.815 C 176.635 137.818,176.963 137.999,177.529 138.216 M168.939 141.750 C 167.491 144.885,169.193 149.012,172.573 150.559 C 173.815 151.128,176.386 151.273,177.120 150.817 C 177.463 150.604,177.454 150.594,177.022 150.713 C 171.827 152.146,166.936 146.583,169.144 141.750 C 169.382 141.228,169.533 140.800,169.478 140.800 C 169.423 140.800,169.180 141.228,168.939 141.750 M181.667 144.300 C 181.670 145.761,181.687 145.828,181.860 145.069 C 181.979 144.543,181.978 143.956,181.856 143.469 C 181.686 142.786,181.665 142.880,181.667 144.300 M181.171 146.907 C 180.996 147.393,180.924 147.747,181.012 147.693 C 181.200 147.577,181.674 146.207,181.564 146.098 C 181.523 146.056,181.346 146.420,181.171 146.907 M180.026 148.723 C 179.656 149.117,178.941 149.700,178.437 150.019 C 177.934 150.339,177.608 150.600,177.714 150.600 C 178.091 150.600,179.970 149.203,180.395 148.607 C 180.962 147.811,180.853 147.845,180.026 148.723 M163.761 158.709 C 165.540 162.181,173.550 170.413,177.350 172.675 C 177.931 173.020,177.526 172.627,176.550 171.897 C 171.886 168.409,168.237 164.712,165.003 160.200 C 163.804 158.526,163.449 158.101,163.761 158.709 M177.800 172.905 C 177.800 173.167,183.540 176.527,183.705 176.362 C 183.746 176.321,183.356 176.069,182.839 175.802 C 182.323 175.534,180.978 174.751,179.850 174.061 C 178.722 173.371,177.800 172.851,177.800 172.905 M184.000 176.498 C 184.000 176.635,185.225 177.242,185.316 177.151 C 185.359 177.107,185.081 176.922,184.697 176.739 C 184.314 176.556,184.000 176.448,184.000 176.498 M186.000 177.500 C 186.275 177.657,186.590 177.786,186.700 177.786 C 186.810 177.786,186.675 177.657,186.400 177.500 C 186.125 177.343,185.810 177.214,185.700 177.214 C 185.590 177.214,185.725 177.343,186.000 177.500 M188.200 178.366 C 188.365 178.468,188.725 178.612,189.000 178.685 C 189.347 178.778,189.408 178.763,189.200 178.634 C 189.035 178.532,188.675 178.388,188.400 178.315 C 188.053 178.222,187.992 178.237,188.200 178.366 M189.700 179.000 C 189.768 179.110,189.959 179.200,190.124 179.200 C 190.289 179.200,190.368 179.110,190.300 179.000 C 190.232 178.890,190.041 178.800,189.876 178.800 C 189.711 178.800,189.632 178.890,189.700 179.000 " stroke="none" fill="#79c4f7" fill-rule="evenodd"></path></g></svg>