<svg id="svg" version="1.1" xmlns="http://www.w3.org/2000/svg" xmlns:xlink="http://www.w3.org/1999/xlink" width="400" height="210" viewBox="0, 0, 400,210"><g id="svgg"><path id="path0" d="M160.189 33.955 C 156.302 34.187,151.430 35.073,149.265 35.942 C 145.284 37.538,143.906 38.273,141.352 40.161 C 136.474 43.767,133.477 47.815,130.878 54.307 C 130.234 55.917,129.665 58.620,129.102 62.748 C 128.619 66.286,128.619 143.798,129.102 147.336 C 129.663 151.453,130.225 154.125,130.875 155.777 C 135.573 167.701,143.840 174.027,157.143 175.878 C 160.075 176.286,239.925 176.286,242.857 175.878 C 259.124 173.615,268.545 164.193,270.833 147.899 C 271.059 146.291,271.113 137.966,271.113 105.042 C 271.113 62.351,271.131 63.257,270.237 58.508 C 269.935 56.908,269.487 55.220,269.122 54.307 C 266.559 47.905,263.688 43.977,258.976 40.427 C 256.152 38.300,254.853 37.593,250.735 35.942 C 249.362 35.391,247.705 35.012,243.172 34.209 C 241.848 33.975,163.848 33.736,160.189 33.955 M243.783 59.720 C 244.234 59.978,244.896 60.552,245.253 60.996 L 245.903 61.804 245.959 84.827 C 245.995 99.974,245.942 107.894,245.804 107.979 C 245.412 108.222,241.919 107.750,240.130 107.214 C 234.207 105.438,229.274 100.954,227.009 95.289 C 225.844 92.374,225.798 92.050,225.658 85.819 L 225.525 79.937 219.958 79.803 C 216.896 79.729,213.934 79.565,213.377 79.439 C 205.953 77.753,200.359 72.799,198.012 65.831 C 197.452 64.166,196.748 60.018,196.941 59.515 C 197.026 59.295,201.424 59.244,220.004 59.247 L 242.962 59.251 243.783 59.720 M207.369 83.797 L 218.834 83.929 219.686 84.492 C 220.209 84.839,220.715 85.424,220.998 86.008 L 221.458 86.959 221.582 109.623 C 221.676 126.906,221.646 132.323,221.458 132.440 C 220.958 132.749,216.228 131.974,214.601 131.317 C 209.169 129.124,205.262 125.546,203.076 120.763 C 201.404 117.105,201.231 116.125,201.103 109.611 L 200.997 104.202 196.034 104.201 C 190.442 104.201,188.072 103.907,185.819 102.935 C 185.588 102.836,184.926 102.549,184.349 102.299 C 179.942 100.392,175.815 95.996,174.007 91.282 C 172.953 88.536,172.252 84.869,172.605 83.950 C 172.749 83.574,183.790 83.525,207.369 83.797 M194.853 108.651 C 195.708 109.116,196.344 109.830,196.734 110.763 C 197.020 111.449,197.059 114.227,197.059 134.237 L 197.059 156.933 196.376 156.929 C 189.485 156.887,182.181 152.198,178.943 145.737 C 177.149 142.157,176.845 140.574,176.732 134.218 L 176.636 128.835 171.354 128.717 C 165.426 128.584,164.077 128.383,161.094 127.190 C 154.828 124.683,151.002 120.411,148.781 113.445 C 148.449 112.403,148.031 108.910,148.189 108.498 C 148.391 107.971,193.877 108.121,194.853 108.651 " stroke="none" fill="#0559e6" fill-rule="evenodd"></path><path id="path1" d="M0.000 105.042 L 0.000 210.084 200.000 210.084 L 400.000 210.084 400.000 105.042 L 400.000 0.000 200.000 0.000 L 0.000 0.000 0.000 105.042 M242.857 33.825 C 245.938 34.253,248.968 34.866,249.254 35.118 C 249.364 35.215,249.648 35.295,249.884 35.295 C 250.121 35.296,250.586 35.438,250.917 35.611 C 251.248 35.783,251.604 35.924,251.709 35.924 C 252.276 35.924,257.574 38.732,257.738 39.120 C 257.777 39.211,257.905 39.286,258.023 39.286 C 258.862 39.286,265.756 46.180,265.756 47.019 C 265.756 47.137,265.831 47.265,265.922 47.304 C 266.505 47.550,269.162 52.955,269.674 54.937 C 269.734 55.168,269.862 55.546,269.959 55.777 C 270.212 56.383,270.744 59.013,271.111 61.475 C 271.589 64.677,271.589 145.407,271.111 148.609 C 270.745 151.062,270.212 153.698,269.960 154.307 C 269.864 154.538,269.627 155.242,269.434 155.871 C 268.837 157.813,266.419 162.570,265.922 162.780 C 265.831 162.819,265.756 162.947,265.756 163.065 C 265.756 163.904,258.862 170.798,258.023 170.798 C 257.905 170.798,257.777 170.873,257.738 170.964 C 257.553 171.403,252.251 174.160,251.592 174.160 C 251.423 174.160,251.233 174.243,251.170 174.346 C 251.107 174.448,250.700 174.599,250.265 174.680 C 249.830 174.761,249.380 174.898,249.265 174.983 C 248.940 175.224,245.791 175.851,242.857 176.259 C 241.056 176.510,158.944 176.510,157.143 176.259 C 154.209 175.851,151.060 175.224,150.735 174.983 C 150.620 174.898,150.170 174.761,149.735 174.680 C 149.300 174.599,148.893 174.448,148.830 174.346 C 148.767 174.243,148.577 174.160,148.408 174.160 C 147.749 174.160,142.447 171.403,142.262 170.964 C 142.223 170.873,142.095 170.798,141.977 170.798 C 141.138 170.798,134.244 163.904,134.244 163.065 C 134.244 162.947,134.169 162.819,134.078 162.780 C 133.592 162.575,131.219 157.922,130.560 155.882 C 130.354 155.247,130.114 154.538,130.026 154.307 C 129.778 153.657,129.239 150.958,128.889 148.609 C 128.411 145.407,128.411 64.677,128.889 61.475 C 129.256 59.013,129.788 56.383,130.041 55.777 C 130.138 55.546,130.266 55.168,130.326 54.937 C 130.838 52.955,133.495 47.550,134.078 47.304 C 134.169 47.265,134.244 47.137,134.244 47.019 C 134.244 46.716,135.404 45.247,136.595 44.041 C 137.151 43.479,137.605 42.943,137.605 42.850 C 137.605 42.758,137.693 42.651,137.800 42.612 C 137.907 42.574,138.450 42.115,139.008 41.592 C 140.323 40.359,141.705 39.286,141.977 39.286 C 142.095 39.286,142.223 39.211,142.262 39.120 C 142.426 38.732,147.724 35.924,148.291 35.924 C 148.396 35.924,148.752 35.783,149.083 35.611 C 149.414 35.438,149.879 35.296,150.116 35.295 C 150.352 35.295,150.636 35.215,150.746 35.118 C 151.013 34.882,154.049 34.256,156.933 33.841 C 158.563 33.607,241.177 33.591,242.857 33.825 M197.395 59.629 C 197.239 59.883,197.653 63.615,197.934 64.489 C 198.445 66.073,198.839 67.143,199.098 67.647 C 199.246 67.936,199.368 68.248,199.368 68.341 C 199.376 69.385,203.417 74.083,205.689 75.689 C 209.867 78.643,212.947 79.410,220.656 79.415 C 223.219 79.417,225.422 79.488,225.552 79.573 C 225.715 79.678,225.823 81.548,225.896 85.504 C 225.957 88.811,226.099 91.551,226.228 91.912 C 226.353 92.258,226.609 93.062,226.799 93.697 C 228.997 101.078,236.133 106.926,243.675 107.529 L 245.588 107.682 245.588 84.966 C 245.588 60.371,245.646 61.644,244.480 60.548 C 243.303 59.442,243.668 59.459,219.708 59.456 C 207.496 59.455,197.455 59.533,197.395 59.629 M173.005 85.662 C 173.361 89.745,175.238 94.248,177.637 96.773 C 177.763 96.905,178.096 97.287,178.379 97.623 C 179.643 99.126,184.235 102.311,185.136 102.311 C 185.246 102.311,185.634 102.438,185.998 102.594 C 188.329 103.590,190.070 103.818,196.146 103.925 L 201.432 104.018 201.531 109.834 C 201.659 117.414,202.295 119.782,205.319 123.950 C 207.452 126.889,212.718 130.882,214.463 130.882 C 214.600 130.882,214.876 130.970,215.076 131.076 C 215.741 131.430,217.939 131.903,219.590 132.049 L 221.218 132.192 221.194 124.657 C 221.181 120.513,221.124 117.311,221.069 117.542 C 221.013 117.773,220.900 118.034,220.818 118.122 C 220.651 118.299,201.891 99.503,201.891 99.158 C 201.891 99.038,201.653 98.849,201.362 98.738 C 201.071 98.627,200.742 98.299,200.632 98.008 C 200.521 97.717,200.349 97.479,200.249 97.479 C 199.982 97.479,198.423 95.950,198.261 95.530 C 198.185 95.331,197.978 95.168,197.801 95.168 C 197.624 95.168,197.479 95.083,197.479 94.978 C 197.479 94.678,193.023 90.126,192.730 90.126 C 192.584 90.126,192.412 89.961,192.346 89.758 C 192.280 89.556,191.136 88.306,189.803 86.980 C 187.878 85.066,187.455 84.543,187.746 84.441 C 188.342 84.232,183.675 84.036,178.081 84.035 L 172.863 84.034 173.005 85.662 M148.609 110.241 C 148.686 111.252,148.838 112.363,148.945 112.710 C 149.053 113.057,149.296 113.860,149.485 114.496 C 150.492 117.874,153.330 121.917,156.197 124.058 C 156.660 124.403,157.150 124.790,157.286 124.918 C 157.501 125.120,160.423 126.585,161.660 127.111 C 162.129 127.311,164.020 127.787,165.720 128.133 C 166.344 128.261,169.106 128.361,171.970 128.361 L 177.101 128.361 177.101 133.600 C 177.101 140.631,177.620 143.018,180.003 146.954 C 182.018 150.281,185.746 153.553,189.076 154.916 C 189.596 155.128,190.210 155.384,190.441 155.484 C 191.498 155.939,194.352 156.474,195.851 156.497 L 196.849 156.513 196.846 149.002 C 196.843 144.255,196.770 141.606,196.646 141.803 C 196.437 142.133,196.562 142.250,185.192 131.067 C 182.417 128.337,178.790 124.792,177.131 123.188 C 173.729 119.900,172.197 118.337,172.094 118.052 C 172.055 117.945,171.940 117.857,171.838 117.857 C 171.630 117.857,170.960 117.221,165.947 112.268 C 162.609 108.970,162.488 108.822,163.111 108.790 C 165.257 108.681,159.868 108.452,154.643 108.429 L 148.467 108.403 148.609 110.241 " stroke="none" fill="#fbfbfc" fill-rule="evenodd"></path><path id="path2" d="M159.716 33.764 C 160.034 33.812,160.554 33.812,160.872 33.764 C 161.190 33.716,160.930 33.676,160.294 33.676 C 159.659 33.676,159.399 33.716,159.716 33.764 M239.128 33.764 C 239.446 33.812,239.966 33.812,240.284 33.764 C 240.601 33.716,240.341 33.676,239.706 33.676 C 239.070 33.676,238.810 33.716,239.128 33.764 M158.036 33.968 C 158.238 34.021,158.569 34.021,158.771 33.968 C 158.973 33.916,158.808 33.872,158.403 33.872 C 157.999 33.872,157.834 33.916,158.036 33.968 M245.900 85.189 C 245.900 97.553,245.925 102.579,245.956 96.360 C 245.987 90.140,245.987 80.025,245.956 73.881 C 245.925 67.737,245.900 72.826,245.900 85.189 M271.057 63.655 C 271.057 64.060,271.100 64.225,271.153 64.023 C 271.206 63.821,271.206 63.490,271.153 63.288 C 271.100 63.086,271.057 63.251,271.057 63.655 M128.637 65.441 C 128.638 66.134,128.677 66.393,128.724 66.015 C 128.770 65.638,128.769 65.070,128.722 64.755 C 128.674 64.439,128.635 64.748,128.637 65.441 M271.281 65.546 C 271.281 66.182,271.321 66.442,271.369 66.124 C 271.417 65.806,271.417 65.286,271.369 64.968 C 271.321 64.651,271.281 64.911,271.281 65.546 M184.414 83.981 C 186.299 84.016,189.325 84.016,191.137 83.981 C 192.950 83.946,191.408 83.917,187.710 83.917 C 184.013 83.917,182.530 83.946,184.414 83.981 M198.004 84.244 C 198.813 84.318,199.290 84.396,199.064 84.417 C 198.767 84.443,201.072 86.879,207.362 93.184 C 212.152 97.986,216.048 102.004,216.019 102.113 C 215.990 102.222,216.108 102.311,216.282 102.311 C 216.455 102.311,216.597 102.409,216.597 102.528 C 216.597 102.990,220.751 106.968,220.935 106.683 C 221.277 106.154,221.288 96.684,220.946 97.146 C 220.674 97.513,220.631 97.518,220.454 97.201 C 220.347 97.010,218.317 94.891,215.944 92.492 C 213.571 90.093,211.568 87.963,211.492 87.758 C 211.416 87.553,211.186 87.326,210.982 87.253 C 210.401 87.047,208.168 84.599,208.419 84.444 C 208.815 84.199,205.491 84.033,200.966 84.071 C 198.019 84.095,197.026 84.153,198.004 84.244 M225.679 89.076 C 225.679 89.480,225.722 89.645,225.775 89.443 C 225.828 89.241,225.828 88.910,225.775 88.708 C 225.722 88.506,225.679 88.671,225.679 89.076 M221.311 113.235 C 221.311 116.644,221.340 118.038,221.376 116.334 C 221.411 114.630,221.411 111.841,221.376 110.137 C 221.340 108.432,221.311 109.827,221.311 113.235 M150.893 108.350 C 152.251 108.387,154.472 108.387,155.830 108.350 C 157.188 108.314,156.077 108.284,153.361 108.284 C 150.646 108.284,149.535 108.314,150.893 108.350 M173.529 108.613 C 174.165 108.691,174.449 108.772,174.160 108.792 C 173.704 108.824,174.041 109.222,176.722 111.820 C 178.420 113.465,181.965 116.921,184.600 119.501 C 194.809 129.495,196.510 131.090,196.678 130.826 C 196.930 130.429,196.891 121.798,196.638 121.954 C 196.522 122.026,195.417 121.086,194.182 119.866 C 192.946 118.645,191.860 117.647,191.766 117.647 C 191.673 117.647,191.597 117.548,191.597 117.427 C 191.597 117.214,187.242 112.815,187.031 112.815 C 186.674 112.815,183.003 108.820,183.337 108.795 C 185.003 108.673,180.713 108.443,176.996 108.456 C 174.320 108.465,172.861 108.531,173.529 108.613 M154.097 122.479 C 154.783 123.172,155.391 123.739,155.449 123.739 C 155.507 123.739,154.993 123.172,154.307 122.479 C 153.621 121.786,153.012 121.218,152.954 121.218 C 152.897 121.218,153.411 121.786,154.097 122.479 M169.118 128.507 C 172.993 128.657,176.843 128.663,176.754 128.519 C 176.700 128.432,174.605 128.380,172.099 128.404 C 169.593 128.427,168.251 128.473,169.118 128.507 M196.942 139.706 C 196.942 143.114,196.971 144.509,197.006 142.805 C 197.041 141.100,197.041 138.311,197.006 136.607 C 196.971 134.903,196.942 136.297,196.942 139.706 M176.939 138.235 C 176.939 138.640,176.983 138.805,177.036 138.603 C 177.088 138.401,177.088 138.070,177.036 137.868 C 176.983 137.665,176.939 137.831,176.939 138.235 M128.637 144.643 C 128.638 145.336,128.677 145.594,128.724 145.217 C 128.770 144.839,128.769 144.272,128.722 143.956 C 128.674 143.641,128.635 143.950,128.637 144.643 M271.281 144.538 C 271.281 145.173,271.321 145.433,271.369 145.116 C 271.417 144.798,271.417 144.278,271.369 143.960 C 271.321 143.642,271.281 143.902,271.281 144.538 M158.143 176.199 C 158.405 176.249,158.783 176.247,158.984 176.195 C 159.184 176.142,158.971 176.101,158.508 176.103 C 158.046 176.106,157.882 176.149,158.143 176.199 M241.126 176.199 C 241.388 176.249,241.766 176.247,241.967 176.195 C 242.168 176.142,241.954 176.101,241.492 176.103 C 241.029 176.106,240.865 176.149,241.126 176.199 M159.929 176.411 C 160.249 176.460,160.721 176.458,160.980 176.408 C 161.238 176.359,160.977 176.319,160.399 176.321 C 159.821 176.322,159.610 176.363,159.929 176.411 M239.131 176.411 C 239.450 176.460,239.923 176.458,240.181 176.408 C 240.440 176.359,240.179 176.319,239.601 176.321 C 239.023 176.322,238.812 176.363,239.131 176.411 " stroke="none" fill="#9abdf4" fill-rule="evenodd"></path><path id="path3" d="M158.246 33.758 C 158.448 33.811,158.779 33.811,158.981 33.758 C 159.183 33.705,159.018 33.662,158.613 33.662 C 158.209 33.662,158.044 33.705,158.246 33.758 M241.492 33.814 C 242.738 34.063,244.639 34.211,244.304 34.033 C 244.144 33.948,243.256 33.826,242.332 33.762 C 241.228 33.686,240.940 33.704,241.492 33.814 M155.696 34.014 C 155.517 34.128,155.800 34.160,156.432 34.099 C 157.855 33.960,158.053 33.859,156.933 33.843 C 156.413 33.836,155.856 33.913,155.696 34.014 M153.151 34.454 C 152.735 34.587,152.714 34.622,153.046 34.622 C 153.277 34.622,153.703 34.546,153.992 34.454 C 154.407 34.321,154.429 34.286,154.097 34.286 C 153.866 34.286,153.440 34.361,153.151 34.454 M246.008 34.454 C 246.297 34.546,246.723 34.622,246.954 34.622 C 247.286 34.622,247.265 34.587,246.849 34.454 C 246.560 34.361,246.134 34.286,245.903 34.286 C 245.571 34.286,245.593 34.321,246.008 34.454 M149.212 35.511 C 148.509 35.794,148.640 35.937,149.370 35.683 C 149.716 35.562,150.000 35.425,150.000 35.379 C 150.000 35.254,149.744 35.297,149.212 35.511 M250.000 35.364 C 250.000 35.419,250.305 35.569,250.678 35.699 C 251.051 35.829,251.264 35.849,251.151 35.744 C 250.911 35.520,250.000 35.219,250.000 35.364 M140.359 40.348 C 140.083 40.579,139.901 40.811,139.955 40.866 C 140.010 40.920,140.276 40.729,140.547 40.440 C 141.136 39.813,141.052 39.771,140.359 40.348 M259.438 40.406 C 259.973 40.995,260.088 41.068,260.077 40.809 C 260.074 40.722,259.814 40.470,259.500 40.248 L 258.929 39.845 259.438 40.406 M138.751 41.859 L 137.920 42.752 138.813 41.922 C 139.643 41.149,139.802 40.966,139.643 40.966 C 139.609 40.966,139.207 41.368,138.751 41.859 M261.239 42.017 C 261.809 42.595,262.321 43.067,262.379 43.067 C 262.437 43.067,262.019 42.595,261.450 42.017 C 260.881 41.439,260.368 40.966,260.310 40.966 C 260.252 40.966,260.670 41.439,261.239 42.017 M136.543 44.065 L 135.819 44.853 136.607 44.129 C 137.340 43.455,137.492 43.277,137.331 43.277 C 137.296 43.277,136.942 43.632,136.543 44.065 M263.235 44.013 C 263.627 44.417,263.995 44.748,264.053 44.748 C 264.111 44.748,263.837 44.417,263.445 44.013 C 263.053 43.608,262.685 43.277,262.628 43.277 C 262.570 43.277,262.843 43.608,263.235 44.013 M135.206 45.542 L 134.803 46.113 135.364 45.604 C 135.953 45.069,136.026 44.954,135.767 44.965 C 135.680 44.968,135.428 45.228,135.206 45.542 M264.496 45.483 C 264.767 45.772,265.024 46.008,265.067 46.008 C 265.242 46.008,264.376 44.971,264.197 44.965 C 264.090 44.961,264.224 45.194,264.496 45.483 M129.307 58.613 C 129.227 58.977,129.205 59.318,129.259 59.371 C 129.313 59.425,129.417 59.166,129.491 58.797 C 129.666 57.922,129.496 57.752,129.307 58.613 M270.516 58.718 C 270.586 59.181,270.679 59.598,270.721 59.646 C 270.880 59.827,270.761 58.702,270.578 58.298 C 270.446 58.005,270.427 58.133,270.516 58.718 M242.542 59.664 C 242.773 59.763,243.104 59.844,243.277 59.844 C 243.476 59.844,243.437 59.778,243.172 59.664 C 242.941 59.565,242.610 59.483,242.437 59.483 C 242.238 59.483,242.277 59.550,242.542 59.664 M197.326 61.345 C 197.326 61.864,197.367 62.077,197.417 61.817 C 197.467 61.557,197.467 61.132,197.417 60.872 C 197.367 60.612,197.326 60.825,197.326 61.345 M128.691 62.830 C 128.611 63.539,128.589 64.163,128.641 64.216 C 128.694 64.268,128.804 63.733,128.887 63.025 C 128.969 62.318,128.991 61.694,128.937 61.640 C 128.882 61.585,128.772 62.121,128.691 62.830 M271.050 62.080 C 271.044 62.426,271.115 63.136,271.208 63.655 C 271.332 64.353,271.379 64.435,271.387 63.971 C 271.393 63.624,271.322 62.915,271.229 62.395 C 271.105 61.698,271.058 61.615,271.050 62.080 M245.640 84.979 L 245.589 107.668 244.381 107.639 L 243.172 107.609 244.328 107.747 C 244.963 107.823,245.555 107.831,245.642 107.765 C 245.729 107.699,245.776 97.440,245.746 84.968 L 245.691 62.290 245.640 84.979 M205.235 75.497 C 205.515 75.841,206.303 76.362,206.303 76.202 C 206.303 76.162,205.995 75.905,205.620 75.630 C 205.197 75.320,205.051 75.270,205.235 75.497 M208.613 77.626 C 208.902 77.791,209.233 77.926,209.349 77.926 C 209.464 77.926,209.322 77.791,209.034 77.626 C 208.745 77.461,208.414 77.326,208.298 77.326 C 208.183 77.326,208.325 77.461,208.613 77.626 M214.338 79.346 C 214.540 79.399,214.871 79.399,215.074 79.346 C 215.276 79.294,215.110 79.250,214.706 79.250 C 214.301 79.250,214.136 79.294,214.338 79.346 M218.027 79.569 C 219.449 79.605,221.718 79.605,223.069 79.569 C 224.420 79.532,223.256 79.502,220.483 79.502 C 217.710 79.503,216.605 79.532,218.027 79.569 M225.719 84.034 C 225.719 86.518,225.750 87.534,225.787 86.292 C 225.824 85.050,225.824 83.017,225.787 81.775 C 225.750 80.533,225.719 81.549,225.719 84.034 M175.053 83.980 C 176.179 84.018,178.023 84.018,179.149 83.980 C 180.276 83.942,179.354 83.911,177.101 83.911 C 174.848 83.911,173.926 83.942,175.053 83.980 M172.727 84.559 C 172.720 84.905,172.792 85.567,172.887 86.029 C 173.116 87.135,173.135 86.142,172.910 84.874 C 172.784 84.165,172.738 84.086,172.727 84.559 M186.450 84.230 C 187.374 84.296,187.958 84.397,187.748 84.455 C 187.446 84.537,187.876 85.066,189.796 86.975 C 191.133 88.304,192.280 89.556,192.346 89.758 C 192.412 89.961,192.584 90.126,192.730 90.126 C 193.023 90.126,197.479 94.678,197.479 94.978 C 197.479 95.083,197.624 95.168,197.801 95.168 C 197.978 95.168,198.185 95.331,198.261 95.530 C 198.423 95.950,199.982 97.479,200.249 97.479 C 200.349 97.479,200.521 97.717,200.632 98.008 C 200.742 98.299,201.071 98.627,201.362 98.738 C 201.653 98.849,201.891 99.038,201.891 99.158 C 201.891 99.614,220.662 118.287,220.891 118.059 C 221.035 117.915,221.128 115.713,221.156 111.807 C 221.179 108.491,221.148 105.919,221.087 106.092 C 221.025 106.266,220.933 106.539,220.882 106.699 C 220.784 107.008,216.597 102.932,216.597 102.528 C 216.597 102.409,216.455 102.311,216.282 102.311 C 216.108 102.311,215.990 102.222,216.019 102.113 C 216.048 102.004,212.152 97.986,207.362 93.184 C 201.109 86.915,198.769 84.444,199.064 84.420 C 200.633 84.290,195.321 84.090,190.546 84.100 C 187.369 84.106,185.525 84.165,186.450 84.230 M230.252 100.338 C 230.252 100.447,230.938 101.196,231.775 102.001 L 233.298 103.466 231.828 101.897 C 231.019 101.033,230.334 100.285,230.305 100.233 C 230.276 100.182,230.252 100.229,230.252 100.338 M185.084 102.381 C 185.084 102.436,185.389 102.586,185.762 102.716 C 186.135 102.846,186.348 102.866,186.235 102.760 C 185.995 102.536,185.084 102.236,185.084 102.381 M190.021 103.782 C 190.910 104.008,191.672 104.008,190.966 103.782 C 190.678 103.689,190.205 103.615,189.916 103.617 C 189.444 103.621,189.455 103.637,190.021 103.782 M201.351 108.718 C 201.351 111.376,201.381 112.434,201.417 111.070 C 201.454 109.706,201.454 107.532,201.417 106.238 C 201.380 104.945,201.350 106.061,201.351 108.718 M235.504 104.926 C 235.504 104.984,235.788 105.178,236.134 105.357 C 236.481 105.536,236.765 105.636,236.765 105.578 C 236.765 105.520,236.481 105.326,236.134 105.147 C 235.788 104.968,235.504 104.868,235.504 104.926 M238.655 106.477 C 238.829 106.584,239.207 106.735,239.496 106.812 C 239.861 106.910,239.925 106.893,239.706 106.758 C 239.533 106.651,239.154 106.500,238.866 106.423 C 238.501 106.325,238.436 106.342,238.655 106.477 M148.379 109.349 C 148.381 109.926,148.422 110.138,148.470 109.819 C 148.518 109.499,148.517 109.027,148.467 108.768 C 148.417 108.510,148.378 108.771,148.379 109.349 M162.395 108.613 C 163.146 108.689,163.468 108.767,163.111 108.787 C 162.487 108.822,162.603 108.964,165.947 112.268 C 170.960 117.221,171.630 117.857,171.838 117.857 C 171.940 117.857,172.055 117.945,172.094 118.052 C 172.197 118.337,173.729 119.900,177.131 123.188 C 178.790 124.792,182.417 128.337,185.192 131.067 C 196.562 142.250,196.437 142.133,196.646 141.803 C 196.755 141.630,196.842 139.060,196.842 136.029 C 196.842 133.025,196.768 130.683,196.678 130.826 C 196.510 131.090,194.809 129.495,184.600 119.501 C 181.965 116.921,178.420 113.465,176.722 111.820 C 174.049 109.230,173.705 108.824,174.160 108.795 C 176.142 108.669,171.186 108.451,166.597 108.462 C 163.501 108.470,161.636 108.537,162.395 108.613 M148.868 112.920 C 149.040 113.693,149.161 113.860,149.156 113.323 C 149.155 113.101,149.057 112.778,148.940 112.605 C 148.784 112.375,148.765 112.460,148.868 112.920 M201.710 116.176 C 201.710 116.350,201.791 116.681,201.891 116.912 C 202.005 117.177,202.071 117.215,202.071 117.017 C 202.071 116.843,201.990 116.513,201.891 116.282 C 201.777 116.017,201.710 115.978,201.710 116.176 M221.268 125.670 L 221.218 132.117 220.431 132.200 L 219.643 132.282 220.437 132.318 C 221.492 132.365,221.443 132.716,221.376 125.523 L 221.317 119.223 221.268 125.670 M202.746 119.643 C 202.746 119.758,202.881 120.089,203.046 120.378 C 203.211 120.667,203.346 120.809,203.346 120.693 C 203.346 120.578,203.211 120.247,203.046 119.958 C 202.881 119.669,202.746 119.527,202.746 119.643 M207.353 126.576 C 207.745 126.980,208.113 127.311,208.171 127.311 C 208.228 127.311,207.955 126.980,207.563 126.576 C 207.171 126.171,206.803 125.840,206.745 125.840 C 206.688 125.840,206.961 126.171,207.353 126.576 M165.126 128.151 C 165.415 128.244,165.840 128.319,166.071 128.319 C 166.404 128.319,166.382 128.284,165.966 128.151 C 165.678 128.059,165.252 127.983,165.021 127.983 C 164.688 127.983,164.710 128.018,165.126 128.151 M176.840 131.460 C 176.940 137.194,177.016 137.740,177.059 133.036 C 177.082 130.465,177.030 128.361,176.943 128.361 C 176.857 128.361,176.810 129.755,176.840 131.460 M271.271 146.324 C 271.274 146.786,271.317 146.950,271.367 146.689 C 271.417 146.427,271.415 146.049,271.363 145.848 C 271.310 145.648,271.269 145.861,271.271 146.324 M128.620 146.429 C 128.620 146.833,128.663 146.998,128.716 146.796 C 128.769 146.594,128.769 146.263,128.716 146.061 C 128.663 145.859,128.620 146.024,128.620 146.429 M196.897 151.092 L 196.849 156.491 195.746 156.568 L 194.643 156.645 195.752 156.684 C 197.165 156.733,197.077 157.137,197.006 150.942 L 196.946 145.693 196.897 151.092 M128.830 147.899 C 128.830 148.304,128.873 148.469,128.926 148.267 C 128.979 148.065,128.979 147.734,128.926 147.532 C 128.873 147.329,128.830 147.495,128.830 147.899 M271.057 147.899 C 271.057 148.304,271.100 148.469,271.153 148.267 C 271.206 148.065,271.206 147.734,271.153 147.532 C 271.100 147.329,271.057 147.495,271.057 147.899 M182.923 150.839 C 183.641 151.580,184.258 152.143,184.295 152.091 C 184.332 152.039,183.744 151.432,182.990 150.743 L 181.618 149.491 182.923 150.839 M129.216 150.858 C 129.225 151.137,129.317 151.555,129.422 151.786 C 129.554 152.079,129.573 151.951,129.484 151.366 C 129.335 150.390,129.195 150.124,129.216 150.858 M270.614 150.735 C 270.597 150.966,270.534 151.392,270.474 151.681 L 270.366 152.206 270.591 151.691 C 270.715 151.407,270.778 150.982,270.731 150.745 C 270.648 150.326,270.645 150.326,270.614 150.735 M130.373 155.462 C 130.450 155.751,130.601 156.129,130.708 156.303 C 130.843 156.522,130.860 156.457,130.762 156.092 C 130.685 155.804,130.534 155.425,130.427 155.252 C 130.291 155.033,130.275 155.097,130.373 155.462 M191.614 155.958 C 191.662 155.999,191.985 156.097,192.332 156.174 C 192.792 156.277,192.877 156.258,192.647 156.102 C 192.363 155.910,191.403 155.776,191.614 155.958 M134.244 163.113 C 134.244 163.194,134.575 163.694,134.979 164.223 C 135.383 164.753,135.713 165.102,135.712 164.999 C 135.711 164.895,135.380 164.396,134.977 163.889 C 134.574 163.381,134.244 163.032,134.244 163.113 M264.951 163.953 C 264.038 165.225,264.109 165.418,265.042 164.196 C 265.457 163.652,265.757 163.166,265.707 163.116 C 265.658 163.067,265.317 163.443,264.951 163.953 M135.924 165.260 C 135.924 165.372,136.279 165.790,136.712 166.188 L 137.500 166.912 136.765 166.074 C 136.360 165.613,136.006 165.195,135.977 165.146 C 135.948 165.096,135.924 165.148,135.924 165.260 M263.249 166.055 L 262.526 166.912 263.343 166.131 C 263.792 165.702,264.117 165.316,264.065 165.274 C 264.013 165.233,263.646 165.584,263.249 166.055 M138.550 168.067 C 139.119 168.645,139.632 169.118,139.690 169.118 C 139.748 169.118,139.330 168.645,138.761 168.067 C 138.191 167.489,137.679 167.017,137.621 167.017 C 137.563 167.017,137.981 167.489,138.550 168.067 M261.232 168.120 L 260.189 169.223 261.292 168.180 C 261.899 167.607,262.395 167.110,262.395 167.077 C 262.395 166.920,262.200 167.095,261.232 168.120 M139.924 169.272 C 139.934 169.456,141.808 170.873,141.899 170.765 C 141.932 170.725,141.500 170.337,140.938 169.902 C 140.376 169.467,139.920 169.184,139.924 169.272 M258.963 169.985 C 257.744 170.961,257.868 171.083,259.108 170.128 C 259.587 169.759,260.018 169.428,260.067 169.392 C 260.115 169.357,260.115 169.293,260.067 169.250 C 260.018 169.207,259.522 169.538,258.963 169.985 M153.151 175.630 C 153.440 175.723,153.913 175.797,154.202 175.795 C 154.673 175.791,154.663 175.774,154.097 175.630 C 153.208 175.404,152.445 175.404,153.151 175.630 M245.903 175.630 C 245.337 175.774,245.327 175.791,245.798 175.795 C 246.087 175.797,246.560 175.723,246.849 175.630 C 247.555 175.404,246.792 175.404,245.903 175.630 M156.358 176.201 C 156.677 176.249,157.150 176.248,157.408 176.198 C 157.667 176.148,157.405 176.109,156.828 176.111 C 156.250 176.112,156.039 176.153,156.358 176.201 M242.702 176.201 C 243.022 176.249,243.494 176.248,243.753 176.198 C 244.011 176.148,243.750 176.109,243.172 176.111 C 242.595 176.112,242.383 176.153,242.702 176.201 M158.353 176.409 C 158.615 176.459,158.993 176.457,159.194 176.405 C 159.394 176.352,159.181 176.311,158.718 176.313 C 158.256 176.316,158.092 176.359,158.353 176.409 M240.916 176.409 C 241.178 176.459,241.556 176.457,241.757 176.405 C 241.958 176.352,241.744 176.311,241.282 176.313 C 240.819 176.316,240.655 176.359,240.916 176.409 " stroke="none" fill="#c8dbfa" fill-rule="evenodd"></path><path id="path4" d="M180.620 33.771 C 191.279 33.801,208.721 33.801,219.380 33.771 C 230.039 33.741,221.318 33.716,200.000 33.716 C 178.682 33.716,169.961 33.741,180.620 33.771 M159.506 33.974 C 159.824 34.022,160.344 34.022,160.662 33.974 C 160.980 33.926,160.720 33.886,160.084 33.886 C 159.449 33.886,159.189 33.926,159.506 33.974 M239.338 33.974 C 239.656 34.022,240.176 34.022,240.494 33.974 C 240.811 33.926,240.551 33.886,239.916 33.886 C 239.280 33.886,239.020 33.926,239.338 33.974 M155.672 34.244 C 154.806 34.378,154.788 34.392,155.462 34.410 C 155.867 34.421,156.576 34.351,157.038 34.256 C 158.123 34.031,157.096 34.022,155.672 34.244 M242.962 34.245 C 243.811 34.432,245.312 34.521,245.151 34.375 C 245.102 34.331,244.401 34.242,243.592 34.178 C 242.462 34.087,242.316 34.103,242.962 34.245 M152.311 34.874 C 151.895 35.007,151.873 35.042,152.206 35.042 C 152.437 35.042,152.862 34.966,153.151 34.874 C 153.567 34.741,153.589 34.706,153.256 34.706 C 153.025 34.706,152.600 34.781,152.311 34.874 M246.849 34.874 C 247.138 34.966,247.563 35.042,247.794 35.042 C 248.127 35.042,248.105 35.007,247.689 34.874 C 247.400 34.781,246.975 34.706,246.744 34.706 C 246.411 34.706,246.433 34.741,246.849 34.874 M150.105 35.504 C 149.840 35.618,149.801 35.685,150.000 35.685 C 150.173 35.685,150.504 35.604,150.735 35.504 C 151.000 35.390,151.039 35.324,150.840 35.324 C 150.667 35.324,150.336 35.405,150.105 35.504 M249.265 35.504 C 249.496 35.604,249.827 35.685,250.000 35.685 C 250.199 35.685,250.160 35.618,249.895 35.504 C 249.664 35.405,249.333 35.324,249.160 35.324 C 248.961 35.324,249.000 35.390,249.265 35.504 M148.634 36.037 C 148.107 36.291,148.090 36.320,148.529 36.214 C 148.818 36.144,149.144 36.003,149.254 35.901 C 149.527 35.646,149.377 35.679,148.634 36.037 M250.630 35.835 C 250.630 35.977,251.722 36.374,251.826 36.270 C 251.873 36.222,251.624 36.082,251.271 35.960 C 250.919 35.837,250.630 35.781,250.630 35.835 M141.405 39.915 C 140.470 40.608,139.706 41.222,139.706 41.280 C 139.706 41.338,140.486 40.808,141.439 40.103 C 143.378 38.670,143.395 38.655,143.225 38.655 C 143.158 38.655,142.339 39.222,141.405 39.915 M256.723 38.697 C 256.922 38.934,260.294 41.384,260.294 41.293 C 260.294 41.174,258.067 39.471,257.248 38.963 C 256.901 38.748,256.665 38.629,256.723 38.697 M137.804 43.021 L 136.239 44.643 137.809 43.172 C 138.673 42.363,139.421 41.678,139.473 41.649 C 139.524 41.620,139.521 41.552,139.467 41.498 C 139.413 41.443,138.664 42.129,137.804 43.021 M261.367 42.384 C 261.875 42.933,262.621 43.659,263.025 43.998 C 263.430 44.337,263.054 43.888,262.190 43.000 C 260.457 41.219,259.916 40.814,261.367 42.384 M134.942 46.309 C 134.404 46.963,133.383 48.571,133.666 48.319 C 133.905 48.106,135.710 45.588,135.624 45.588 C 135.575 45.588,135.268 45.913,134.942 46.309 M265.241 46.849 C 266.371 48.432,266.603 48.688,266.076 47.771 C 265.869 47.411,265.377 46.749,264.983 46.300 C 264.470 45.716,264.544 45.873,265.241 46.849 M196.929 59.547 C 196.866 59.713,196.858 60.020,196.912 60.229 C 196.976 60.477,197.019 60.407,197.034 60.029 L 197.059 59.448 220.253 59.504 C 233.010 59.534,243.338 59.489,243.205 59.404 C 242.689 59.076,197.056 59.216,196.929 59.547 M129.118 61.261 C 129.039 62.029,129.017 62.701,129.070 62.753 C 129.122 62.805,129.232 62.222,129.314 61.457 C 129.396 60.691,129.417 60.020,129.362 59.964 C 129.306 59.908,129.196 60.492,129.118 61.261 M244.118 59.940 C 244.118 59.976,244.425 60.283,244.800 60.622 L 245.483 61.239 244.866 60.557 C 244.291 59.920,244.118 59.777,244.118 59.940 M270.627 60.609 C 270.619 60.956,270.691 61.618,270.786 62.080 C 271.015 63.186,271.035 62.192,270.809 60.924 C 270.683 60.215,270.637 60.137,270.627 60.609 M245.614 61.980 C 245.932 62.920,246.111 63.103,245.918 62.290 C 245.836 61.943,245.678 61.567,245.568 61.454 C 245.457 61.341,245.478 61.578,245.614 61.980 M197.311 63.130 C 197.311 63.361,197.386 63.787,197.479 64.076 C 197.612 64.492,197.647 64.513,197.647 64.181 C 197.647 63.950,197.572 63.524,197.479 63.235 C 197.346 62.819,197.311 62.798,197.311 63.130 M128.674 105.042 C 128.674 126.245,128.699 134.919,128.729 124.317 C 128.759 113.716,128.759 96.368,128.729 85.767 C 128.699 75.165,128.674 83.839,128.674 105.042 M198.434 67.069 C 198.512 67.329,198.663 67.634,198.769 67.747 C 198.875 67.860,198.855 67.648,198.725 67.275 C 198.459 66.511,198.213 66.338,198.434 67.069 M271.321 105.042 C 271.321 126.245,271.346 134.919,271.376 124.317 C 271.406 113.716,271.406 96.368,271.376 85.767 C 271.346 75.165,271.321 83.839,271.321 105.042 M199.581 69.450 C 199.581 69.556,199.826 69.926,200.123 70.273 L 200.665 70.903 200.190 70.168 C 199.582 69.225,199.580 69.222,199.581 69.450 M202.941 73.845 C 203.569 74.480,204.130 75.000,204.187 75.000 C 204.245 75.000,203.779 74.480,203.151 73.845 C 202.524 73.209,201.963 72.689,201.905 72.689 C 201.847 72.689,202.314 73.209,202.941 73.845 M205.042 75.626 C 205.446 75.991,205.966 76.389,206.197 76.511 C 206.755 76.804,206.410 76.489,205.252 75.649 L 204.307 74.962 205.042 75.626 M206.723 76.777 C 206.723 76.835,207.101 77.075,207.563 77.311 C 208.025 77.547,208.403 77.692,208.403 77.635 C 208.403 77.577,208.025 77.337,207.563 77.101 C 207.101 76.865,206.723 76.719,206.723 76.777 M212.395 79.202 C 213.113 79.432,213.666 79.432,213.130 79.202 C 212.899 79.102,212.521 79.024,212.290 79.027 C 211.952 79.032,211.973 79.066,212.395 79.202 M217.017 79.769 C 221.448 79.918,225.631 79.923,225.631 79.779 C 225.630 79.693,223.290 79.641,220.431 79.665 C 217.571 79.689,216.035 79.735,217.017 79.769 M188.445 83.845 C 204.097 84.007,208.898 84.148,208.435 84.434 C 208.168 84.599,210.370 87.036,210.982 87.253 C 211.186 87.326,211.416 87.553,211.492 87.758 C 211.568 87.963,213.547 90.068,215.890 92.437 C 218.233 94.806,220.283 96.925,220.444 97.146 C 220.721 97.525,220.751 97.527,220.944 97.181 C 221.203 96.719,221.428 108.393,221.428 122.308 L 221.429 132.326 220.851 132.412 C 220.306 132.492,220.309 132.496,220.903 132.478 L 221.534 132.458 221.497 109.711 L 221.461 86.964 220.999 86.010 C 220.715 85.424,220.209 84.839,219.686 84.492 L 218.834 83.929 207.369 83.797 C 201.063 83.724,190.657 83.669,184.244 83.673 L 172.584 83.682 188.445 83.845 M172.902 87.833 C 172.904 88.112,172.999 88.482,173.112 88.655 C 173.258 88.877,173.279 88.753,173.184 88.235 C 173.018 87.329,172.898 87.158,172.902 87.833 M173.345 89.496 C 173.341 89.669,173.468 90.095,173.627 90.441 C 173.998 91.253,174.004 90.875,173.634 89.916 C 173.479 89.512,173.348 89.322,173.345 89.496 M175.986 95.184 C 176.195 95.540,176.791 96.282,177.311 96.834 C 177.831 97.386,177.953 97.477,177.583 97.038 C 177.213 96.598,176.657 95.856,176.347 95.388 C 175.687 94.390,175.437 94.249,175.986 95.184 M178.591 98.372 C 178.641 98.401,179.058 98.755,179.519 99.160 L 180.357 99.895 179.633 99.107 C 179.235 98.674,178.817 98.319,178.705 98.319 C 178.593 98.319,178.542 98.343,178.591 98.372 M229.407 99.623 C 229.788 100.166,230.338 100.828,230.629 101.093 C 230.920 101.359,230.707 101.008,230.155 100.315 C 228.847 98.670,228.542 98.388,229.407 99.623 M231.948 102.468 C 231.956 102.555,232.311 102.905,232.736 103.245 L 233.508 103.864 232.784 103.087 C 232.036 102.285,231.922 102.201,231.948 102.468 M187.710 103.571 C 187.941 103.671,188.319 103.749,188.550 103.746 C 188.888 103.741,188.868 103.707,188.445 103.571 C 187.727 103.341,187.175 103.341,187.710 103.571 M195.742 104.147 L 201.042 104.209 201.105 108.775 L 201.168 113.340 201.162 108.718 L 201.155 104.097 195.798 104.091 L 190.441 104.085 195.742 104.147 M241.282 107.553 C 241.685 107.736,242.810 107.855,242.630 107.696 C 242.581 107.653,242.164 107.561,241.702 107.491 C 241.116 107.402,240.989 107.421,241.282 107.553 M148.193 108.488 C 148.131 108.651,148.113 109.100,148.153 109.486 C 148.217 110.102,148.239 110.066,148.327 109.191 C 148.430 108.168,148.392 107.969,148.193 108.488 M170.834 108.384 C 177.728 108.452,183.440 108.579,183.526 108.666 C 183.613 108.753,183.520 108.824,183.319 108.824 C 183.088 108.824,183.678 109.550,184.941 110.819 C 186.034 111.917,186.974 112.815,187.031 112.815 C 187.242 112.815,191.597 117.214,191.597 117.427 C 191.597 117.548,191.673 117.647,191.766 117.647 C 191.860 117.647,192.946 118.645,194.182 119.866 C 195.417 121.086,196.521 122.027,196.635 121.956 C 196.769 121.873,196.863 123.929,196.901 127.773 C 196.934 131.090,196.982 128.817,197.010 122.630 C 197.063 110.661,197.065 110.688,195.946 109.489 C 194.799 108.260,195.831 108.323,176.261 108.290 C 159.803 108.262,159.348 108.270,170.834 108.384 M148.533 112.412 C 148.534 112.692,148.629 113.062,148.742 113.235 C 148.888 113.457,148.909 113.332,148.814 112.815 C 148.648 111.909,148.528 111.738,148.533 112.412 M202.425 119.380 C 202.504 119.640,202.655 119.945,202.760 120.058 C 202.866 120.171,202.846 119.958,202.716 119.586 C 202.450 118.822,202.204 118.649,202.425 119.380 M153.992 122.584 C 154.619 123.220,155.180 123.739,155.238 123.739 C 155.296 123.739,154.829 123.220,154.202 122.584 C 153.574 121.949,153.013 121.429,152.956 121.429 C 152.898 121.429,153.364 121.949,153.992 122.584 M203.676 122.059 C 203.856 122.405,204.050 122.689,204.107 122.689 C 204.165 122.689,204.066 122.405,203.887 122.059 C 203.707 121.712,203.513 121.429,203.456 121.429 C 203.398 121.429,203.497 121.712,203.676 122.059 M156.092 124.365 C 156.497 124.731,157.017 125.129,157.248 125.250 C 157.806 125.544,157.460 125.229,156.303 124.388 L 155.357 123.702 156.092 124.365 M206.933 126.366 C 207.677 127.117,208.333 127.731,208.391 127.731 C 208.449 127.731,207.887 127.117,207.143 126.366 C 206.398 125.614,205.742 125.000,205.684 125.000 C 205.627 125.000,206.188 125.614,206.933 126.366 M163.130 127.941 C 163.361 128.040,163.739 128.119,163.971 128.116 C 164.308 128.111,164.288 128.076,163.866 127.941 C 163.147 127.711,162.595 127.711,163.130 127.941 M208.689 127.893 C 208.855 128.162,210.084 129.072,210.084 128.926 C 210.084 128.874,209.737 128.567,209.313 128.243 C 208.889 127.920,208.608 127.762,208.689 127.893 M166.232 128.512 C 166.551 128.560,167.024 128.559,167.282 128.509 C 167.541 128.459,167.279 128.420,166.702 128.421 C 166.124 128.423,165.913 128.464,166.232 128.512 M172.265 128.727 L 176.673 128.790 176.735 133.460 L 176.798 138.130 176.792 133.403 L 176.786 128.676 172.321 128.670 L 167.857 128.664 172.265 128.727 M216.702 131.933 C 216.933 132.032,217.311 132.111,217.542 132.107 C 217.880 132.102,217.859 132.068,217.437 131.933 C 216.719 131.703,216.166 131.703,216.702 131.933 M176.906 139.408 C 176.914 139.745,177.004 140.210,177.106 140.441 C 177.231 140.722,177.251 140.547,177.167 139.916 C 177.020 138.803,176.885 138.540,176.906 139.408 M129.031 147.689 C 129.027 147.978,129.098 148.640,129.191 149.160 C 129.317 149.869,129.363 149.947,129.373 149.475 C 129.381 149.128,129.309 148.466,129.214 148.004 C 129.105 147.478,129.037 147.360,129.031 147.689 M270.693 148.529 C 270.611 149.237,270.589 149.860,270.643 149.915 C 270.698 149.970,270.808 149.434,270.888 148.724 C 270.969 148.015,270.991 147.392,270.938 147.339 C 270.886 147.286,270.775 147.822,270.693 148.529 M180.462 148.319 C 180.709 148.666,180.958 148.950,181.016 148.950 C 181.074 148.950,180.919 148.666,180.672 148.319 C 180.425 147.973,180.176 147.689,180.118 147.689 C 180.061 147.689,180.215 147.973,180.462 148.319 M182.166 150.368 C 182.673 150.916,183.419 151.643,183.824 151.981 C 184.228 152.320,183.852 151.871,182.988 150.983 C 181.255 149.202,180.714 148.797,182.166 150.368 M129.637 151.908 C 129.645 152.188,129.737 152.605,129.842 152.836 C 129.974 153.129,129.993 153.002,129.904 152.416 C 129.756 151.441,129.615 151.174,129.637 151.908 M270.194 151.786 C 270.176 152.017,270.114 152.442,270.054 152.731 L 269.946 153.256 270.171 152.741 C 270.295 152.457,270.358 152.032,270.311 151.796 C 270.227 151.377,270.224 151.376,270.194 151.786 M195.644 156.873 C 195.963 156.922,196.436 156.920,196.694 156.871 C 196.952 156.821,196.691 156.781,196.113 156.783 C 195.536 156.784,195.324 156.825,195.644 156.873 M134.332 162.920 C 134.531 163.267,135.073 163.976,135.536 164.496 C 136.210 165.255,136.161 165.151,135.285 163.971 C 134.010 162.253,133.836 162.060,134.332 162.920 M264.528 164.233 C 263.737 165.288,263.718 165.334,264.382 164.601 C 265.080 163.829,265.650 163.025,265.498 163.025 C 265.464 163.025,265.027 163.569,264.528 164.233 M136.345 165.604 C 136.345 165.636,137.077 166.368,137.973 167.232 L 139.601 168.803 138.030 167.174 C 136.572 165.662,136.345 165.450,136.345 165.604 M261.975 167.122 C 261.114 167.988,260.457 168.697,260.515 168.697 C 260.572 168.697,261.324 167.988,262.185 167.122 C 263.046 166.255,263.703 165.546,263.645 165.546 C 263.587 165.546,262.836 166.255,261.975 167.122 M140.546 169.506 C 141.066 169.969,141.775 170.511,142.122 170.710 C 142.982 171.206,142.789 171.032,141.071 169.757 C 139.891 168.881,139.787 168.832,140.546 169.506 M259.139 169.565 C 257.870 170.595,257.753 170.714,258.298 170.415 C 258.765 170.159,260.460 168.713,260.294 168.713 C 260.236 168.713,259.716 169.096,259.139 169.565 M152.206 175.210 C 152.437 175.309,152.815 175.388,153.046 175.384 C 153.384 175.379,153.363 175.345,152.941 175.210 C 152.223 174.980,151.671 174.980,152.206 175.210 M247.059 175.210 C 246.637 175.345,246.616 175.379,246.954 175.384 C 247.185 175.388,247.563 175.309,247.794 175.210 C 248.329 174.980,247.777 174.980,247.059 175.210 M155.200 175.779 C 155.460 175.829,155.885 175.829,156.145 175.779 C 156.405 175.728,156.192 175.687,155.672 175.687 C 155.152 175.687,154.940 175.728,155.200 175.779 M243.855 175.779 C 244.115 175.829,244.540 175.829,244.800 175.779 C 245.060 175.728,244.848 175.687,244.328 175.687 C 243.808 175.687,243.595 175.728,243.855 175.779 M180.620 176.418 C 191.279 176.448,208.721 176.448,219.380 176.418 C 230.039 176.388,221.318 176.363,200.000 176.363 C 178.682 176.363,169.961 176.388,180.620 176.418 " stroke="none" fill="#7ca4f0" fill-rule="evenodd"></path></g></svg>