<svg xmlns="http://www.w3.org/2000/svg" width="920" height="512" viewBox="0 0 920 512" version="1.1"><path d="M 450 30.984 C 447.525 31.459, 408.825 49.607, 364 71.312 C 280.151 111.914, 275.358 114.539, 271.530 121.942 C 270.756 123.439, 260.836 165.352, 249.487 215.082 C 230.786 297.026, 228.883 306.205, 229.176 313.027 C 229.420 318.686, 230.121 321.728, 232 325.283 C 235.217 331.367, 344.945 467.941, 350.298 472.523 C 352.522 474.427, 356.852 477, 359.921 478.242 L 365.500 480.500 460.500 480.500 C 567.522 480.500, 561.853 480.883, 570.014 473.091 C 572.659 470.566, 600.221 436.755, 631.263 397.956 C 692.570 321.328, 691.246 323.255, 691.260 310.611 C 691.269 303.373, 651.939 130.782, 648.939 124.887 C 644.441 116.053, 642.082 114.743, 553.227 71.746 C 469.980 31.463, 469.174 31.101, 461.870 30.613 C 457.816 30.342, 452.475 30.509, 450 30.984 M 452.400 91.400 C 449.447 94.353, 449 95.452, 449 99.764 C 449 102.493, 449.453 107.116, 450.007 110.036 C 450.561 112.956, 451.122 118.821, 451.255 123.069 C 451.449 129.254, 451.149 131.178, 449.749 132.725 C 448.787 133.788, 448 135.548, 448 136.637 C 448 138.375, 446.868 138.775, 438.750 139.906 C 414.532 143.279, 389.524 155.288, 371.390 172.252 C 365.482 177.778, 364.731 178.194, 362.658 177.084 C 361.410 176.417, 359.964 175.953, 359.445 176.054 C 356.784 176.570, 354.798 175.069, 343.500 164 C 331.525 152.267, 331.152 152, 326.762 152 C 320.597 152, 317 155.501, 317 161.502 C 317 166.686, 319.396 169.996, 325.823 173.688 C 338.959 181.235, 347.008 187.185, 347.630 189.811 C 347.981 191.290, 348.957 193.292, 349.797 194.259 C 351.185 195.855, 351.073 196.458, 348.597 200.759 C 335.443 223.604, 330.520 242.470, 330.592 269.750 C 330.621 280.774, 330.272 287, 329.624 287 C 329.066 287, 327.407 288.152, 325.937 289.560 C 323.196 292.186, 312.135 294.887, 303.799 294.965 C 291.477 295.081, 284 299.614, 284 306.969 C 284 314.712, 291.609 318.785, 300.217 315.651 C 302.573 314.793, 308.325 312.693, 313 310.983 C 321.535 307.861, 326.433 307.257, 333.082 308.506 C 336.062 309.066, 336.880 309.794, 337.953 312.840 C 346.176 336.174, 365.580 361.488, 385.674 375.094 C 391.914 379.319, 393.637 380.968, 392.956 382.064 C 392.465 382.854, 392.328 385.167, 392.652 387.205 C 393.300 391.281, 391.213 395.671, 381.887 409.848 C 376.209 418.480, 375.160 422.474, 377.422 426.849 C 379.371 430.618, 381.769 432, 386.358 432 C 391.167 432, 395.440 428.149, 397.777 421.708 C 398.817 418.844, 400.951 412.907, 402.521 408.515 C 404.746 402.289, 406.430 399.475, 410.169 395.736 L 414.964 390.940 421.171 392.978 C 434.834 397.463, 442.632 398.504, 462 398.425 C 479.370 398.355, 481.202 398.162, 492 395.275 C 498.325 393.583, 504.247 391.897, 505.160 391.527 C 506.313 391.060, 507.020 391.488, 507.477 392.928 C 507.839 394.067, 508.747 395, 509.495 395 C 511.748 395, 514.649 399.584, 517.569 407.761 C 519.089 412.017, 521.230 417.969, 522.327 420.988 C 523.424 424.006, 525.565 427.718, 527.084 429.238 C 533.275 435.429, 544 430.980, 544 422.220 C 544 419.101, 542.784 416.436, 538.136 409.369 C 529.325 395.972, 527.643 392.277, 527.465 385.925 L 527.309 380.350 533.404 376.450 C 541.708 371.139, 560.603 352.165, 566.724 342.992 C 572.456 334.403, 579.486 320.826, 581.996 313.500 C 583.433 309.308, 584.066 308.552, 585.914 308.823 C 587.127 309.001, 588.774 308.603, 589.574 307.939 C 591.782 306.106, 598.434 307.410, 610.657 312.072 C 622.262 316.498, 627.638 317.123, 631.627 314.509 C 635.607 311.901, 636.638 308.562, 634.712 304.522 C 632.505 299.894, 629.291 298.007, 621.802 296.942 C 595.257 293.168, 595.609 293.247, 593.310 290.574 C 592.092 289.158, 590.341 288, 589.419 288 C 587.916 288, 587.815 286.979, 588.440 278.166 C 589.282 266.289, 587.779 251.071, 584.473 238 C 581.467 226.113, 578.518 218.590, 572.040 206.285 C 567.751 198.138, 567.187 196.475, 568.473 195.755 C 569.313 195.285, 570 193.978, 570 192.850 C 570 189.793, 575.416 184.978, 585.500 179.071 C 595.647 173.126, 598.534 170.760, 600.684 166.629 C 604.703 158.900, 596.669 149.894, 588.519 152.993 C 586.923 153.600, 580.310 159.250, 573.824 165.548 C 564.969 174.146, 561.387 177, 559.450 177 C 558.030 177, 555.970 177.481, 554.872 178.068 C 553.144 178.993, 551.911 178.221, 545.688 172.317 C 527.730 155.280, 501.679 143.215, 474.961 139.561 C 471.302 139.061, 470.391 138.537, 470.264 136.858 C 470.178 135.713, 469.408 134.004, 468.554 133.059 C 466.534 130.828, 466.533 122.899, 468.552 109.302 C 470.313 97.442, 469.636 93.432, 465.293 90.016 C 461.261 86.844, 456.438 87.362, 452.400 91.400 M 439 167.675 C 422.720 171.051, 407.221 178.210, 394.750 188.113 C 390.488 191.497, 387 194.601, 387 195.009 C 387 196.060, 428.973 226.152, 432 227.271 C 435.637 228.615, 439.732 226.671, 441.471 222.773 C 442.484 220.504, 443.371 211.368, 444.364 193 C 445.152 178.425, 445.730 166.461, 445.649 166.413 C 445.567 166.366, 442.575 166.933, 439 167.675 M 472.404 175.750 C 472.743 180.563, 473.502 193.050, 474.092 203.500 C 475.054 220.553, 475.378 222.731, 477.256 224.750 C 478.691 226.293, 480.500 227, 483.013 227 C 486.142 227, 489.902 224.700, 508.761 211.250 C 534.176 193.123, 533.029 195.814, 519.615 185.809 C 509.573 178.320, 497.319 172.473, 485.241 169.409 C 470.900 165.771, 471.674 165.389, 472.404 175.750 M 365.560 225.124 C 360.723 235.355, 357.541 246.337, 356.032 258 C 354.859 267.065, 354.748 277.055, 355.801 278.712 C 356.927 280.484, 407.831 265.617, 410.250 262.809 C 411.261 261.637, 412 259.155, 412 256.937 C 412 253.214, 411.406 252.561, 392.750 235.786 C 382.163 226.266, 372.711 217.863, 371.746 217.113 C 370.146 215.868, 369.604 216.569, 365.560 225.124 M 526.858 233.767 C 503.617 254.750, 502.269 256.725, 507.250 262.494 C 509.119 264.659, 513.877 266.361, 535.358 272.550 C 549.580 276.648, 561.393 280, 561.608 280 C 561.824 280, 562 275.784, 562 270.631 C 562 259.142, 559.992 247.231, 556.161 236 C 553.211 227.352, 548.025 215.986, 547.042 216.017 C 546.744 216.026, 537.661 224.013, 526.858 233.767 M 449.354 255.250 C 448.256 256.488, 445.922 259.372, 444.166 261.661 L 440.973 265.822 442.657 273.484 L 444.341 281.146 451.301 284.651 L 458.261 288.156 465.647 284.936 C 470.869 282.659, 473.173 281.098, 473.509 279.608 C 475.307 271.634, 475.954 268.297, 475.976 266.898 C 475.989 266.016, 473.881 262.529, 471.292 259.148 L 466.584 253 458.966 253 C 452.324 253, 451.093 253.288, 449.354 255.250 M 499.357 296.980 C 496.559 298.124, 494 301.844, 494 304.766 C 494 307.139, 514.062 356.925, 515.038 356.973 C 515.334 356.988, 519.254 354.057, 523.749 350.461 C 532.127 343.758, 541.915 332.454, 547.840 322.638 C 550.898 317.572, 556.187 305.853, 555.655 305.321 C 555.531 305.198, 544.421 303.268, 530.965 301.033 C 517.509 298.798, 505.375 296.775, 504 296.537 C 502.625 296.299, 500.536 296.499, 499.357 296.980 M 385.750 301.314 C 372.620 303.588, 362.007 305.891, 362.015 306.464 C 362.048 308.787, 371.271 325.620, 376.024 332.033 C 381.449 339.351, 394.748 352.365, 399.726 355.226 L 402.728 356.952 412.884 332.226 C 418.469 318.627, 423.031 306.242, 423.020 304.705 C 423.008 303.090, 421.963 300.872, 420.545 299.455 C 417.254 296.163, 414.699 296.300, 385.750 301.314 M 455.465 318.930 C 454.346 319.395, 452.927 320.389, 452.310 321.138 C 450.646 323.162, 425.918 368.251, 426.276 368.609 C 427.241 369.574, 439.870 372.214, 448.323 373.218 C 455.867 374.114, 460.642 374.107, 468.905 373.188 C 477.760 372.204, 489.539 369.693, 490.791 368.523 C 491.293 368.055, 465.920 322.589, 464.166 320.813 C 462.065 318.686, 458.110 317.830, 455.465 318.930" stroke="none" fill="#326be4" fill-rule="evenodd"/><path d="M -0 256.001 L -0 512.002 460.250 511.751 L 920.500 511.500 920.752 255.750 L 921.004 -0 460.502 -0 L 0 0 -0 256.001 M 0.492 256.500 C 0.492 397.300, 0.608 454.751, 0.750 384.170 C 0.892 313.588, 0.892 198.388, 0.750 128.170 C 0.608 57.951, 0.492 115.700, 0.492 256.500 M 450 30.984 C 447.525 31.459, 408.825 49.607, 364 71.312 C 280.151 111.914, 275.358 114.539, 271.530 121.942 C 270.756 123.439, 260.836 165.352, 249.487 215.082 C 230.786 297.026, 228.883 306.205, 229.176 313.027 C 229.420 318.686, 230.121 321.728, 232 325.283 C 235.217 331.367, 344.945 467.941, 350.298 472.523 C 352.522 474.427, 356.852 477, 359.921 478.242 L 365.500 480.500 460.500 480.500 C 567.522 480.500, 561.853 480.883, 570.014 473.091 C 572.659 470.566, 600.221 436.755, 631.263 397.956 C 692.570 321.328, 691.246 323.255, 691.260 310.611 C 691.269 303.373, 651.939 130.782, 648.939 124.887 C 644.441 116.053, 642.082 114.743, 553.227 71.746 C 469.980 31.463, 469.174 31.101, 461.870 30.613 C 457.816 30.342, 452.475 30.509, 450 30.984 M 452.400 91.400 C 449.447 94.353, 449 95.452, 449 99.764 C 449 102.493, 449.453 107.116, 450.007 110.036 C 450.561 112.956, 451.122 118.821, 451.255 123.069 C 451.449 129.254, 451.149 131.178, 449.749 132.725 C 448.787 133.788, 448 135.548, 448 136.637 C 448 138.375, 446.868 138.775, 438.750 139.906 C 414.532 143.279, 389.524 155.288, 371.390 172.252 C 365.482 177.778, 364.731 178.194, 362.658 177.084 C 361.410 176.417, 359.964 175.953, 359.445 176.054 C 356.784 176.570, 354.798 175.069, 343.500 164 C 331.525 152.267, 331.152 152, 326.762 152 C 320.597 152, 317 155.501, 317 161.502 C 317 166.686, 319.396 169.996, 325.823 173.688 C 338.959 181.235, 347.008 187.185, 347.630 189.811 C 347.981 191.290, 348.957 193.292, 349.797 194.259 C 351.185 195.855, 351.073 196.458, 348.597 200.759 C 335.443 223.604, 330.520 242.470, 330.592 269.750 C 330.621 280.774, 330.272 287, 329.624 287 C 329.066 287, 327.407 288.152, 325.937 289.560 C 323.196 292.186, 312.135 294.887, 303.799 294.965 C 291.477 295.081, 284 299.614, 284 306.969 C 284 314.712, 291.609 318.785, 300.217 315.651 C 302.573 314.793, 308.325 312.693, 313 310.983 C 321.535 307.861, 326.433 307.257, 333.082 308.506 C 336.062 309.066, 336.880 309.794, 337.953 312.840 C 346.176 336.174, 365.580 361.488, 385.674 375.094 C 391.914 379.319, 393.637 380.968, 392.956 382.064 C 392.465 382.854, 392.328 385.167, 392.652 387.205 C 393.300 391.281, 391.213 395.671, 381.887 409.848 C 376.209 418.480, 375.160 422.474, 377.422 426.849 C 379.371 430.618, 381.769 432, 386.358 432 C 391.167 432, 395.440 428.149, 397.777 421.708 C 398.817 418.844, 400.951 412.907, 402.521 408.515 C 404.746 402.289, 406.430 399.475, 410.169 395.736 L 414.964 390.940 421.171 392.978 C 434.834 397.463, 442.632 398.504, 462 398.425 C 479.370 398.355, 481.202 398.162, 492 395.275 C 498.325 393.583, 504.247 391.897, 505.160 391.527 C 506.313 391.060, 507.020 391.488, 507.477 392.928 C 507.839 394.067, 508.747 395, 509.495 395 C 511.748 395, 514.649 399.584, 517.569 407.761 C 519.089 412.017, 521.230 417.969, 522.327 420.988 C 523.424 424.006, 525.565 427.718, 527.084 429.238 C 533.275 435.429, 544 430.980, 544 422.220 C 544 419.101, 542.784 416.436, 538.136 409.369 C 529.325 395.972, 527.643 392.277, 527.465 385.925 L 527.309 380.350 533.404 376.450 C 541.708 371.139, 560.603 352.165, 566.724 342.992 C 572.456 334.403, 579.486 320.826, 581.996 313.500 C 583.433 309.308, 584.066 308.552, 585.914 308.823 C 587.127 309.001, 588.774 308.603, 589.574 307.939 C 591.782 306.106, 598.434 307.410, 610.657 312.072 C 622.262 316.498, 627.638 317.123, 631.627 314.509 C 635.607 311.901, 636.638 308.562, 634.712 304.522 C 632.505 299.894, 629.291 298.007, 621.802 296.942 C 595.257 293.168, 595.609 293.247, 593.310 290.574 C 592.092 289.158, 590.341 288, 589.419 288 C 587.916 288, 587.815 286.979, 588.440 278.166 C 589.282 266.289, 587.779 251.071, 584.473 238 C 581.467 226.113, 578.518 218.590, 572.040 206.285 C 567.751 198.138, 567.187 196.475, 568.473 195.755 C 569.313 195.285, 570 193.978, 570 192.850 C 570 189.793, 575.416 184.978, 585.500 179.071 C 595.647 173.126, 598.534 170.760, 600.684 166.629 C 604.703 158.900, 596.669 149.894, 588.519 152.993 C 586.923 153.600, 580.310 159.250, 573.824 165.548 C 564.969 174.146, 561.387 177, 559.450 177 C 558.030 177, 555.970 177.481, 554.872 178.068 C 553.144 178.993, 551.911 178.221, 545.688 172.317 C 527.730 155.280, 501.679 143.215, 474.961 139.561 C 471.302 139.061, 470.391 138.537, 470.264 136.858 C 470.178 135.713, 469.408 134.004, 468.554 133.059 C 466.534 130.828, 466.533 122.899, 468.552 109.302 C 470.313 97.442, 469.636 93.432, 465.293 90.016 C 461.261 86.844, 456.438 87.362, 452.400 91.400 M 439 167.675 C 422.720 171.051, 407.221 178.210, 394.750 188.113 C 390.488 191.497, 387 194.601, 387 195.009 C 387 196.060, 428.973 226.152, 432 227.271 C 435.637 228.615, 439.732 226.671, 441.471 222.773 C 442.484 220.504, 443.371 211.368, 444.364 193 C 445.152 178.425, 445.730 166.461, 445.649 166.413 C 445.567 166.366, 442.575 166.933, 439 167.675 M 472.404 175.750 C 472.743 180.563, 473.502 193.050, 474.092 203.500 C 475.054 220.553, 475.378 222.731, 477.256 224.750 C 478.691 226.293, 480.500 227, 483.013 227 C 486.142 227, 489.902 224.700, 508.761 211.250 C 534.176 193.123, 533.029 195.814, 519.615 185.809 C 509.573 178.320, 497.319 172.473, 485.241 169.409 C 470.900 165.771, 471.674 165.389, 472.404 175.750 M 365.560 225.124 C 360.723 235.355, 357.541 246.337, 356.032 258 C 354.859 267.065, 354.748 277.055, 355.801 278.712 C 356.927 280.484, 407.831 265.617, 410.250 262.809 C 411.261 261.637, 412 259.155, 412 256.937 C 412 253.214, 411.406 252.561, 392.750 235.786 C 382.163 226.266, 372.711 217.863, 371.746 217.113 C 370.146 215.868, 369.604 216.569, 365.560 225.124 M 526.858 233.767 C 503.617 254.750, 502.269 256.725, 507.250 262.494 C 509.119 264.659, 513.877 266.361, 535.358 272.550 C 549.580 276.648, 561.393 280, 561.608 280 C 561.824 280, 562 275.784, 562 270.631 C 562 259.142, 559.992 247.231, 556.161 236 C 553.211 227.352, 548.025 215.986, 547.042 216.017 C 546.744 216.026, 537.661 224.013, 526.858 233.767 M 449.354 255.250 C 448.256 256.488, 445.922 259.372, 444.166 261.661 L 440.973 265.822 442.657 273.484 L 444.341 281.146 451.301 284.651 L 458.261 288.156 465.647 284.936 C 470.869 282.659, 473.173 281.098, 473.509 279.608 C 475.307 271.634, 475.954 268.297, 475.976 266.898 C 475.989 266.016, 473.881 262.529, 471.292 259.148 L 466.584 253 458.966 253 C 452.324 253, 451.093 253.288, 449.354 255.250 M 499.357 296.980 C 496.559 298.124, 494 301.844, 494 304.766 C 494 307.139, 514.062 356.925, 515.038 356.973 C 515.334 356.988, 519.254 354.057, 523.749 350.461 C 532.127 343.758, 541.915 332.454, 547.840 322.638 C 550.898 317.572, 556.187 305.853, 555.655 305.321 C 555.531 305.198, 544.421 303.268, 530.965 301.033 C 517.509 298.798, 505.375 296.775, 504 296.537 C 502.625 296.299, 500.536 296.499, 499.357 296.980 M 385.750 301.314 C 372.620 303.588, 362.007 305.891, 362.015 306.464 C 362.048 308.787, 371.271 325.620, 376.024 332.033 C 381.449 339.351, 394.748 352.365, 399.726 355.226 L 402.728 356.952 412.884 332.226 C 418.469 318.627, 423.031 306.242, 423.020 304.705 C 423.008 303.090, 421.963 300.872, 420.545 299.455 C 417.254 296.163, 414.699 296.300, 385.750 301.314 M 455.465 318.930 C 454.346 319.395, 452.927 320.389, 452.310 321.138 C 450.646 323.162, 425.918 368.251, 426.276 368.609 C 427.241 369.574, 439.870 372.214, 448.323 373.218 C 455.867 374.114, 460.642 374.107, 468.905 373.188 C 477.760 372.204, 489.539 369.693, 490.791 368.523 C 491.293 368.055, 465.920 322.589, 464.166 320.813 C 462.065 318.686, 458.110 317.830, 455.465 318.930" stroke="none" fill="#f2f2f2" fill-rule="evenodd"/></svg>